<?xml version="1.0" standalone="no"?>
<!DOCTYPE svg PUBLIC "-//W3C//DTD SVG 1.1//EN" "http://www.w3.org/Graphics/SVG/1.1/DTD/svg11.dtd" >
<svg xmlns="http://www.w3.org/2000/svg">
<metadata></metadata>
<defs>
<font id="UbuntuBold" horiz-adv-x="1163" >
<font-face units-per-em="2048" ascent="1638" descent="-410" />
<missing-glyph horiz-adv-x="491" />
<glyph unicode="&#xfb01;" horiz-adv-x="1449" d="M143 0v1135q0 209 118 331.5t349 122.5q135 0 238 -45l-53 -239q-61 26 -135 26t-112 -15.5t-60 -41.5q-39 -49 -39 -144v-53h376v-254h-376v-823h-306zM971 1389q0 84 54 132t128 48t128 -48t54 -132t-54 -132.5t-128 -48.5t-128 48.5t-54 132.5zM1001 0v1077h306v-1077 h-306z" />
<glyph unicode="&#xfb02;" horiz-adv-x="1507" d="M143 0v1135q0 209 118 331.5t349 122.5q135 0 238 -45l-53 -239q-61 26 -135 26t-112 -15.5t-60 -41.5q-39 -49 -39 -144v-53h376v-254h-376v-823h-306zM1004 354v1186l305 49v-1173q0 -92 23 -122q43 -54 145 -63l-43 -251q-360 5 -413 220q-17 68 -17 154z" />
<glyph unicode="&#xfb03;" horiz-adv-x="2308" d="M143 0v1135q0 209 118 331.5t349 122.5q145 0 269 -51l-60 -244q-84 37 -158.5 37t-112.5 -15.5t-60 -41.5q-39 -49 -39 -144v-53h376v-254h-376v-823h-306zM1001 0v1135q0 209 118 331.5t349 122.5q135 0 238 -45l-53 -239q-61 26 -135 26t-112 -15.5t-60 -41.5 q-39 -49 -39 -144v-53h376v-254h-376v-823h-306zM1829 1389q0 84 54 132t128 48t128 -48t54 -132t-54 -132.5t-128 -48.5t-128 48.5t-54 132.5zM1860 0v1077h305v-1077h-305z" />
<glyph unicode="&#xfb04;" horiz-adv-x="2365" d="M143 0v1135q0 209 118 331.5t349 122.5q145 0 269 -51l-60 -244q-84 37 -158.5 37t-112.5 -15.5t-60 -41.5q-39 -49 -39 -144v-53h376v-254h-376v-823h-306zM1001 0v1135q0 209 118 331.5t349 122.5q135 0 238 -45l-53 -239q-61 26 -135 26t-112 -15.5t-60 -41.5 q-39 -49 -39 -144v-53h376v-254h-376v-823h-306zM1862 354v1186l305 49v-1173q0 -92 23 -122q43 -54 145 -63l-43 -251q-360 5 -413 220q-17 68 -17 154z" />
<glyph unicode="&#xd;" horiz-adv-x="491" />
<glyph horiz-adv-x="0" />
<glyph horiz-adv-x="0" />
<glyph unicode=" "  horiz-adv-x="491" />
<glyph unicode="&#x09;" horiz-adv-x="491" />
<glyph unicode="&#xa0;" horiz-adv-x="491" />
<glyph unicode="!" horiz-adv-x="585" d="M102 162q0 90 58.5 139t132.5 49t132 -49t58 -139t-58 -139.5t-132 -49.5t-132.5 49.5t-58.5 139.5zM131 1053v366h326v-366q0 -269 -45 -600h-234q-47 345 -47 600z" />
<glyph unicode="&#x22;" horiz-adv-x="952" d="M102 1407v149h301v-151q0 -144 -49 -451h-202q-50 259 -50 453zM548 1407v149h301v-151q0 -144 -49 -451h-202q-50 259 -50 453z" />
<glyph unicode="#" horiz-adv-x="1431" d="M113 348v236h192l49 252h-241v235h286l68 348h266l-67 -348h237l68 348h266l-68 -348h150v-235h-195l-49 -252h244v-236h-289l-65 -348h-267l66 348h-238l-65 -348h-266l65 348h-147zM571 584h238l49 252h-237z" />
<glyph unicode="$" d="M72 123l88 235q189 -92 381 -92q125 0 171 34t46 84t-18.5 77.5t-53.5 50.5q-56 37 -167.5 76t-175.5 68.5t-117 72.5q-115 95 -115 256q0 229 185 331q66 36 157 52v221h258v-213q184 -17 305 -71l-64 -246q-162 69 -344 69q-98 0 -141 -32.5t-43 -75.5t13.5 -66.5 t42.5 -41.5q49 -33 155 -70t183 -76t134 -89q119 -106 119 -276q0 -218 -191 -321q-69 -37 -169 -53v-250h-258v243q-213 17 -381 103z" />
<glyph unicode="%" horiz-adv-x="1880" d="M72 1055q0 193 98 295t264 102t264.5 -102t98.5 -295t-98.5 -295.5t-264.5 -102.5t-264 102.5t-98 295.5zM303 1055q0 -104 36 -152.5t94 -48.5t95 48.5t37 152.5t-36.5 151t-95 47t-94.5 -47t-36 -151zM395 0l801 1419h285l-801 -1419h-285zM1083 365q0 193 98.5 295 t264.5 102t264 -102t98 -295t-98 -295.5t-264 -102.5t-264.5 102.5t-98.5 295.5zM1315 365q0 -104 35.5 -152.5t94 -48.5t95.5 48.5t37 152.5t-37 151t-95 47t-94 -47t-36 -151z" />
<glyph unicode="&#x26;" horiz-adv-x="1443" d="M72 377q0 266 276 422q-49 59 -88 127.5t-39 150.5q0 180 108.5 277.5t299.5 97.5q183 0 287 -95q98 -88 98 -221t-71 -230t-179 -163l229 -229q49 113 58 213l254 -33q-12 -120 -75 -272q-20 -47 -42 -86q148 -166 235 -336h-313q-45 76 -102 135q-190 -153 -435 -153 q-261 0 -393 128q-108 103 -108 267zM356 415q0 -38 12.5 -71t39.5 -60q63 -63 162 -63q177 0 272 82l-328 330q-103 -50 -144 -145q-14 -35 -14 -73zM483 1097q0 -102 111 -204q160 90 160 203q0 139 -133 139q-66 0 -102 -40t-36 -98z" />
<glyph unicode="'" horiz-adv-x="505" d="M102 1407v149h301v-151q0 -144 -49 -451h-202q-50 259 -50 453z" />
<glyph unicode="(" horiz-adv-x="729" d="M143 612q0 285 94.5 537t268.5 455l213 -138q-123 -174 -199 -393t-76 -461t76 -461t199 -393l-213 -137q-174 203 -268.5 455t-94.5 536z" />
<glyph unicode=")" horiz-adv-x="729" d="M10 -242q123 174 199 393t76 461t-76 461t-199 393l213 138q174 -203 268.5 -455t94.5 -537t-94.5 -536.5t-268.5 -454.5z" />
<glyph unicode="*" horiz-adv-x="1028" d="M82 1008l82 254l49 -17q81 -26 236 -147q-68 184 -68 270v51h266v-51q0 -89 -67 -270q23 21 84 62q98 67 151 85l49 17l82 -254l-49 -17q-61 -18 -154 -18h-122q89 -57 142.5 -106.5t70.5 -71.5l32 -43l-217 -154l-31 41q-51 64 -104 256q-53 -192 -104 -256l-31 -41 l-217 154l33 43q44 63 213 178h-66q-150 0 -211 18z" />
<glyph unicode="+" d="M100 483v256h342v379h279v-379h342v-256h-342v-379h-279v379h-342z" />
<glyph unicode="," horiz-adv-x="503" d="M35 -274q84 241 84 450l-6 135h319q6 -73 6 -119t-11 -115t-31 -139q-42 -141 -122 -272z" />
<glyph unicode="-" horiz-adv-x="696" d="M51 473v277h594v-277h-594z" />
<glyph unicode="." horiz-adv-x="503" d="M61 162q0 92 58.5 140t132.5 48t132 -48t58 -140t-58 -140.5t-132 -48.5t-132.5 48.5t-58.5 140.5z" />
<glyph unicode="/" horiz-adv-x="894" d="M-51 -379l688 1983h309l-684 -1983h-313z" />
<glyph unicode="0" d="M70 713q0 353 138 547q138 192 376 192t374 -191.5t136 -548.5t-136.5 -549t-375.5 -192q-240 0 -376 191.5t-136 550.5zM381 713q0 -347 105 -445q38 -35 96 -35q200 0 200 480q0 349 -104 442q-39 35 -96 35q-201 0 -201 -477z" />
<glyph unicode="1" d="M143 1124q314 133 469 295h213v-1419h-305v1022q-111 -74 -284 -133z" />
<glyph unicode="2" d="M72 1260q90 84 209.5 138t251 54t221.5 -28.5t148 -81.5q114 -101 114 -295q0 -195 -222 -417q-61 -61 -106 -103t-81 -77.5t-69 -72.5q-80 -92 -89 -121h610v-256h-946q-4 23 -4 58v48q0 247 229 466q167 158 215.5 205.5t81.5 87.5q70 85 70 168t-51.5 120t-127.5 37 q-150 0 -303 -143z" />
<glyph unicode="3" d="M53 49l60 254q53 -23 136 -48.5t215 -25.5t197.5 53.5t65.5 143.5q0 197 -305 197h-119v245h135q162 0 214 90q20 33 20 78t-16.5 74t-41.5 48q-51 36 -129 36q-153 0 -299 -92l-108 223q210 127 416 127q243 0 366 -114q117 -106 117 -285q0 -84 -47 -163t-127 -120 q111 -45 171 -134t60 -200.5t-32.5 -194.5t-102.5 -143q-149 -129 -432 -129q-167 0 -340 53q-47 15 -74 27z" />
<glyph unicode="4" d="M41 317v224q167 335 438 671q92 115 185 207h288v-852h152v-250h-152v-317h-299v317h-612zM332 567h321v480q-80 -104 -170 -227.5t-151 -252.5z" />
<glyph unicode="5" d="M78 43l55 252q146 -66 311.5 -66t229 56.5t63.5 124t-26.5 113.5t-92.5 77q-135 64 -454 64q39 320 59 755h768v-256h-512q-9 -170 -20 -262q583 -39 583 -473q0 -205 -138 -328q-149 -131 -423 -131q-153 0 -333 49q-46 13 -70 25z" />
<glyph unicode="6" d="M76 580q0 404 244 628q237 216 661 222l16 -250q-465 -9 -577 -312q83 37 198 37t208.5 -35.5t152.5 -97.5q113 -117 113 -317q0 -185 -120 -324q-139 -160 -384.5 -160t-378.5 162t-133 447zM383 584q0 -359 213 -359q92 0 146 76q46 64 46 159t-52 151.5t-169.5 56.5 t-181.5 -31z" />
<glyph unicode="7" d="M88 1161v260h993v-221q-153 -167 -293 -486q-166 -377 -188 -714h-309q23 289 147 628q118 325 267 533h-617z" />
<glyph unicode="8" d="M80 371q0 159 126 282q36 35 77 66q-88 72 -130 141.5t-42 164.5t33.5 171t95.5 132q136 124 342 124q228 0 360 -127q109 -105 109 -260q0 -98 -52.5 -183t-130.5 -134q117 -76 167 -159t50 -184.5t-31.5 -178t-95.5 -134.5q-134 -121 -378 -121q-255 0 -392 139 q-108 110 -108 261zM377 383q0 -102 111 -149q38 -17 94 -17q106 0 155 51t49 106.5t-21.5 92.5t-58.5 65q-58 44 -194 89q-135 -102 -135 -238zM408 1047.5q0 -60.5 48 -118t165 -98.5q135 84 135 226q0 53 -31 86q-59 63 -143 63q-86 0 -132 -52q-42 -46 -42 -106.5z" />
<glyph unicode="9" d="M57 967q0 187 115 325q136 162 385.5 162t383.5 -163t134 -468q0 -409 -213 -613q-221 -210 -684 -214q-1 46 -14 254q247 4 376 68q145 72 201 245q-84 -39 -200.5 -39t-210.5 32t-154 90q-119 115 -119 321zM360 964q0 -202 232 -202q123 0 174 35v18l2 31 q-7 256 -114 326q-42 28 -97 28t-92 -20.5t-59 -53.5q-46 -65 -46 -162z" />
<glyph unicode=":" horiz-adv-x="503" d="M61 162q0 92 58.5 140t132.5 48t132 -48t58 -140t-58 -140.5t-132 -48.5t-132.5 48.5t-58.5 140.5zM61 889q0 92 58.5 140t132.5 48t132 -48t58 -140t-58 -140.5t-132 -48.5t-132.5 48.5t-58.5 140.5z" />
<glyph unicode=";" horiz-adv-x="503" d="M35 -274q84 241 84 450l-6 135h319q6 -73 6 -119t-11 -115t-31 -139q-42 -141 -122 -272zM61 889q0 92 58.5 140t132.5 48t132 -48t58 -140t-58 -140.5t-132 -48.5t-132.5 48.5t-58.5 140.5z" />
<glyph unicode="&#x3c;" d="M102 485v254l881 371l80 -248l-643 -250l643 -250l-80 -247z" />
<glyph unicode="=" d="M100 258v256h963v-256h-963zM100 707v256h963v-256h-963z" />
<glyph unicode="&#x3e;" d="M100 362l643 250l-643 250l80 248l881 -371v-254l-881 -370z" />
<glyph unicode="?" horiz-adv-x="931" d="M41 1346q80 51 188.5 78.5t226 27.5t202.5 -35t134 -88q89 -95 89 -237q0 -143 -123 -273q-35 -37 -64 -65.5t-55.5 -56t-48.5 -58.5q-49 -71 -49 -133v-24q0 -17 2 -29h-271q-6 30 -6 88.5t14.5 104.5t37.5 86q39 65 102 127t102 108.5t39 100.5t-37.5 89t-111.5 35 q-133 0 -285 -78zM221 162q0 90 58.5 139t132.5 49t132 -49t58 -139t-58.5 -139.5t-131.5 -49.5q-74 0 -132.5 49.5t-58.5 139.5z" />
<glyph unicode="@" horiz-adv-x="1994" d="M102 557q0 227 78 398t205 286t290 172t343 57t342 -52t280 -152q252 -216 252 -590q0 -447 -268 -578q-84 -41 -210.5 -41t-194.5 66q-90 -63 -210 -63.5t-205 31.5t-146 95q-128 135 -128 373q0 216 134 351q142 145 376 145q194 0 369 -66v-643q0 -47 19.5 -63.5 t56.5 -16.5q170 0 170 426q0 258 -171 413q-176 159 -474 159q-292 0 -478 -190q-190 -193 -190 -517q0 -334 190 -512q185 -174 515 -174q145 0 346 39l30 -193q-169 -53 -371 -53t-374 51.5t-300 160.5q-276 233 -276 681zM807 559q0 -276 221 -276q83 0 119 18 q-8 32 -8 109v417q-193 38 -277 -71q-55 -72 -55 -197z" />
<glyph unicode="A" horiz-adv-x="1476" d="M20 0q321 919 566 1419h305q260 -546 565 -1419h-342l-104 307h-553q-94 -271 -105 -307h-332zM530 561h404q-87 242 -118.5 321t-52 132t-32.5 84q-10 -31 -30.5 -84t-47 -123t-58.5 -154t-65 -176z" />
<glyph unicode="B" horiz-adv-x="1376" d="M164 23v1376q201 37 384 37t296.5 -19.5t195.5 -66.5q174 -100 174 -314q0 -170 -163 -268q135 -51 184 -139t49 -199q0 -448 -647 -448q-283 0 -473 41zM475 252q70 -8 189.5 -8t208 41t88.5 145t-74 146t-211 42h-201v-366zM475 862h156q147 0 210.5 38t63.5 123 t-65.5 120t-189 35t-175.5 -7v-309z" />
<glyph unicode="C" horiz-adv-x="1327" d="M102 711q0 342 208 547q195 194 517 194q150 0 293 -44q86 -26 146 -65l-92 -258q-158 84 -351 84q-263 0 -356 -243q-33 -86 -33 -196.5t21.5 -195.5t69.5 -146q104 -134 315 -134q179 0 298 54q33 14 60 26l88 -256q-68 -41 -190.5 -74t-284.5 -33q-346 0 -527.5 192.5 t-181.5 547.5z" />
<glyph unicode="D" horiz-adv-x="1509" d="M164 18v1383q194 35 406 35t360.5 -41t255.5 -129q221 -183 221 -555q0 -361 -221 -549q-210 -180 -596 -180q-246 0 -426 36zM483 260q46 -4 123 -4q240 0 355.5 121t115.5 339t-110.5 332.5t-350.5 114.5q-87 0 -133 -6v-897z" />
<glyph unicode="E" horiz-adv-x="1241" d="M164 0v1419h958v-268h-639v-279h568v-262h-568v-342h686v-268h-1005z" />
<glyph unicode="F" horiz-adv-x="1175" d="M164 0v1419h950v-268h-631v-297h561v-268h-561v-586h-319z" />
<glyph unicode="G" horiz-adv-x="1437" d="M102 711q0 342 208 547q195 194 503 194q169 0 321 -44q96 -28 150 -65l-92 -256q-164 87 -336 87q-223 0 -322.5 -124t-99.5 -339q0 -331 222 -431q73 -34 177 -34t152 10v494h320v-703q-57 -23 -184.5 -48.5t-300.5 -25.5t-303 49.5t-222 143.5q-193 197 -193 545z" />
<glyph unicode="H" horiz-adv-x="1503" d="M164 0v1419h319v-542h537v542h319v-1419h-319v602h-537v-602h-319z" />
<glyph unicode="I" horiz-adv-x="647" d="M164 0v1419h319v-1419h-319z" />
<glyph unicode="J" horiz-adv-x="1083" d="M20 84l107 248q148 -88 269.5 -88t173 57t51.5 193v925h319v-942q0 -234 -106 -357q-126 -149 -408 -149q-240 0 -406 113z" />
<glyph unicode="K" horiz-adv-x="1400" d="M164 0v1419h319v-536q125 131 251 273t235 263h379q-274 -325 -600 -653q329 -273 632 -766h-379q-151 246 -370 468q-74 75 -148 132v-600h-319z" />
<glyph unicode="L" horiz-adv-x="1153" d="M164 0v1419h319v-1145h629v-274h-948z" />
<glyph unicode="M" horiz-adv-x="1837" d="M123 0q46 971 113 1419h305q117 -215 228.5 -477t156.5 -369q45 106 96 227.5t104 237.5q117 257 185 381h291q41 -291 61 -581q36 -520 51 -838h-311q-16 561 -47 942q-118 -274 -326 -762h-223q-29 68 -70 163t-85 199.5t-89 209t-82 190.5q-31 -381 -47 -942h-311z " />
<glyph unicode="N" horiz-adv-x="1548" d="M164 0v1419h260q244 -244 643 -837v837h317v-1419h-268q-301 536 -637 930v-930h-315z" />
<glyph unicode="O" horiz-adv-x="1617" d="M102 711q0 347 212 553q195 188 495 188q307 0 499 -188q208 -204 208 -553q0 -351 -203 -552q-190 -188 -504 -188q-304 0 -499 188q-208 200 -208 552zM432 710q0 -103 25.5 -187.5t74.5 -144.5q100 -126 277 -126t277 126q100 124 100 333q0 210 -100 335t-277 125 q-175 0 -277 -127q-100 -125 -100 -334z" />
<glyph unicode="P" horiz-adv-x="1318" d="M164 0v1399q192 37 426 37q317 0 487 -112t170 -367t-172 -368.5t-491 -113.5h-101v-475h-319zM483 748h101q166 0 250 45t84 168q0 165 -180 193q-58 9 -119 9t-136 -6v-409z" />
<glyph unicode="Q" horiz-adv-x="1617" d="M102 711q0 347 212 553q195 188 495 188q307 0 499 -188q97 -95 152.5 -233t55.5 -304t-37 -285.5t-103 -209.5q-132 -180 -362 -236q26 -107 256 -133q71 -8 153 -15l-65 -233q-454 17 -591 213q-46 66 -71 152q-266 34 -424 216q-170 199 -170 515zM432 710 q0 -103 25.5 -187.5t74.5 -144.5q100 -126 277 -126t277 126q100 124 100 333q0 210 -100 335t-277 125q-175 0 -277 -127q-100 -125 -100 -334z" />
<glyph unicode="R" horiz-adv-x="1366" d="M164 0v1399q192 37 416 37q659 0 659 -467q0 -150 -68.5 -243t-197.5 -146q185 -228 352 -580h-358q-214 384 -326 518h-158v-518h-319zM483 772h90q180 0 258 45t78 151.5t-78.5 150.5t-232.5 44q-40 0 -115 -6v-385z" />
<glyph unicode="S" horiz-adv-x="1191" d="M76 80l90 254q162 -90 385 -90q186 0 219 88q10 26 10 59q0 70 -65.5 116t-180.5 85t-184 70.5t-124 79.5q-126 110 -126 284q0 195 142 312q139 114 381 114t419 -98l-92 -252q-148 78 -285 78t-187 -32t-50 -84t18.5 -79t51.5 -49q41 -26 164 -70.5t204.5 -84.5 t135.5 -93q108 -105 108 -301.5t-139.5 -306t-419.5 -109.5q-295 0 -475 109z" />
<glyph unicode="T" horiz-adv-x="1257" d="M41 1147v272h1176v-272h-429v-1147h-319v1147h-428z" />
<glyph unicode="U" horiz-adv-x="1447" d="M143 537v882h320v-856q0 -315 260 -315q117 0 189.5 71.5t72.5 243.5v856h320v-882q0 -261 -141 -409q-150 -157 -445 -157q-288 0 -437 159q-139 147 -139 407z" />
<glyph unicode="V" horiz-adv-x="1478" d="M20 1419h353q258 -774 372 -1042q131 315 373 1042h340q-294 -845 -565 -1419h-307q-297 629 -566 1419z" />
<glyph unicode="W" horiz-adv-x="1941" d="M41 1419h346q102 -615 207 -993q94 253 160.5 506.5t89.5 335.5h272q25 -84 54.5 -189.5t63.5 -218.5q97 -321 136 -434q80 310 199 993h332q-158 -779 -367 -1419h-293q-103 282 -272 846q-66 -217 -131.5 -433t-137.5 -413h-292q-206 625 -367 1419z" />
<glyph unicode="X" horiz-adv-x="1382" d="M20 0q159 293 478 735l-457 684h387l277 -442l270 442h364l-450 -688q277 -359 473 -731h-383q-133 268 -293 489q-88 -112 -185.5 -281t-115.5 -208h-365z" />
<glyph unicode="Y" horiz-adv-x="1353" d="M10 1419h371q133 -297 303 -583q193 326 307 583h352q-221 -433 -505 -876v-543h-320v539q-289 450 -508 880z" />
<glyph unicode="Z" horiz-adv-x="1249" d="M72 0v190q102 187 253 404q223 323 416 557h-637v268h1061v-221q-232 -239 -532 -672q-94 -135 -168 -258h723v-268h-1116z" />
<glyph unicode="[" horiz-adv-x="759" d="M184 -379v1983h555v-244h-264v-1495h264v-244h-555z" />
<glyph unicode="\" horiz-adv-x="894" d="M-51 1604h309l688 -1983h-313z" />
<glyph unicode="]" horiz-adv-x="759" d="M20 -135h265v1495h-265v244h555v-1983h-555v244z" />
<glyph unicode="^" d="M37 717l424 710h241l424 -710l-256 -125l-288 502l-289 -502z" />
<glyph unicode="_" horiz-adv-x="1024" d="M0 -125h1024v-254h-1024v254z" />
<glyph unicode="`" horiz-adv-x="585" d="M41 1464l186 172l291 -331l-139 -125z" />
<glyph unicode="a" horiz-adv-x="1132" d="M72 332q0 179 138 264q121 74 316 74q112 0 181 -19v29q0 172 -211 172q-167 0 -285 -43l-39 246q172 51 332.5 51t251 -31t144.5 -88q99 -105 99 -321v-635q-66 -14 -182.5 -34t-251 -20t-220 18.5t-147.5 60.5q-126 86 -126 276zM375 340q0 -72 48 -99.5t141 -27.5 t143 8v232q-54 12 -123 12q-209 0 -209 -125z" />
<glyph unicode="b" horiz-adv-x="1236" d="M143 35v1505l306 49v-536q104 47 222 47t206 -40t147 -114q121 -152 121 -407q0 -259 -147 -412q-149 -154 -414 -154q-229 0 -441 62zM449 244q63 -11 133 -11q125 0 188.5 86.5t63.5 227.5q0 295 -218 295q-100 0 -167 -43v-555z" />
<glyph unicode="c" horiz-adv-x="1024" d="M92 539q0 241 148 400q155 167 407 167q156 0 297 -59l-63 -244q-110 41 -209 41q-135 0 -202 -84t-67 -225t62.5 -221.5t205.5 -80.5t249 43l43 -249q-129 -56 -293 -56t-270.5 44t-175.5 120q-132 147 -132 404z" />
<glyph unicode="d" horiz-adv-x="1236" d="M92 532q0 263 128 416q126 152 349 152q110 0 219 -47v487l306 49v-1554q-212 -62 -441 -62q-266 0 -413 151q-148 151 -148 408zM403 547q0 -141 63.5 -227.5t188.5 -86.5q72 0 133 11v555q-69 43 -167 43q-218 0 -218 -295z" />
<glyph unicode="e" horiz-adv-x="1196" d="M92 530q0 272 160 430q147 146 366 146t352.5 -140.5t133.5 -412.5q0 -40 -6 -115h-692q10 -94 87.5 -149.5t231.5 -55.5t274 54l41 -248q-86 -41 -264 -61q-57 -7 -114 -7q-280 0 -432 161q-138 147 -138 398zM406 647h403q-7 136 -107 189q-36 18 -88.5 18t-89.5 -17.5 t-62 -46.5q-41 -48 -56 -143z" />
<glyph unicode="f" horiz-adv-x="864" d="M143 0v1135q0 209 118 331.5t349 122.5q145 0 269 -51l-60 -244q-84 37 -158.5 37t-112.5 -15.5t-60 -41.5q-39 -49 -39 -144v-53h376v-254h-376v-823h-306z" />
<glyph unicode="g" horiz-adv-x="1216" d="M92 573q0 241 144 383q148 146 405 146q159 0 339 -38q52 -11 93 -24v-905q0 -264 -134 -392t-415 -128q-190 0 -379 63l54 256q151 -61 305.5 -61t209 57.5t54.5 147.5v39q-96 -45 -215 -45q-223 0 -342 132t-119 369zM403 573q0 -256 207 -256q84 0 158 41v488 q-57 10 -125 10q-121 0 -180.5 -80t-59.5 -203z" />
<glyph unicode="h" horiz-adv-x="1206" d="M143 0v1540l306 49v-516q90 29 196.5 29t193.5 -36t139 -102q95 -119 95 -356v-608h-305v571q0 147 -38 209t-140 62q-61 0 -141 -23v-819h-306z" />
<glyph unicode="i" horiz-adv-x="591" d="M113 1389q0 84 54 132t128 48t128 -48t54 -132t-54 -132.5t-128 -48.5t-128 48.5t-54 132.5zM143 0v1077h306v-1077h-306z" />
<glyph unicode="j" horiz-adv-x="591" d="M-147 -350l41 248q59 -19 125.5 -19t95 43t28.5 125v1030h306v-1038q0 -213 -104.5 -315.5t-301.5 -102.5q-106 0 -190 29zM113 1389q0 84 54 132t128 48t128 -48t54 -132t-54 -132.5t-128 -48.5t-128 48.5t-54 132.5z" />
<glyph unicode="k" horiz-adv-x="1185" d="M143 0v1540l306 49v-901q216 235 339 389h363q-258 -296 -438 -473q109 -98 212 -236q161 -214 240 -368h-350q-220 354 -366 471v-471h-306z" />
<glyph unicode="l" horiz-adv-x="647" d="M143 354v1186l306 49v-1173q0 -92 23 -122q42 -54 144 -63l-43 -251q-358 5 -413 220q-17 68 -17 154z" />
<glyph unicode="m" horiz-adv-x="1765" d="M143 0v1040q242 62 439 62t313 -101q66 47 150.5 74t185 27t183.5 -36t132 -102q86 -114 86 -356v-608h-305v571q0 147 -38 209t-130 62q-25 0 -68.5 -12.5t-72.5 -30.5q22 -74 22 -211v-588h-305v571q0 147 -38 209t-130 62q-56 0 -118 -11v-831h-306z" />
<glyph unicode="n" horiz-adv-x="1206" d="M143 0v1040q210 62 459 62q375 0 448 -293q23 -90 23 -201v-608h-305v571q0 147 -39 209t-128.5 62t-151.5 -11v-831h-306z" />
<glyph unicode="o" horiz-adv-x="1243" d="M92 541q0 253 150 409t381 156q233 0 381 -156q147 -155 147 -409q0 -258 -143 -413q-146 -157 -385 -157q-238 0 -383 157q-148 159 -148 413zM403 541q0 -141 57.5 -224.5t162.5 -83.5q104 0 160.5 83.5t56.5 224.5t-56.5 222t-160.5 81t-162 -81t-58 -222z" />
<glyph unicode="p" horiz-adv-x="1236" d="M143 -379v1419q212 62 441 62q263 0 414 -152q147 -150 147 -411q0 -252 -121 -404q-124 -155 -350 -155q-121 0 -225 47v-406h-306zM449 281q69 -43 167 -43h1q217 0 217 292q0 141 -63.5 226.5t-188.5 85.5q-85 0 -133 -11v-550z" />
<glyph unicode="q" horiz-adv-x="1236" d="M92 539q0 251 148 406q149 157 413 157q162 0 347 -38q53 -11 94 -24v-1419h-306v406q-104 -47 -225 -47q-229 0 -350 150.5t-121 408.5zM403 530q0 -292 217 -292h1q104 0 167 43v550q-63 11 -133 11q-125 0 -188.5 -85.5t-63.5 -226.5z" />
<glyph unicode="r" horiz-adv-x="864" d="M143 0v1020q226 80 443 80q80 0 156.5 -15.5t101.5 -25.5l-51 -252q-135 33 -211 33t-133 -17v-823h-306z" />
<glyph unicode="s" horiz-adv-x="993" d="M80 37l51 249q166 -66 322 -67q84 0 118.5 16.5t34.5 58.5t-45 69.5t-127 58.5t-140 59.5t-99 68.5q-86 84 -86 232t112.5 236t308.5 88q186 0 332 -55l-53 -238q-138 47 -268.5 47t-130.5 -80q0 -39 24 -56q46 -32 141.5 -68t161.5 -71.5t104 -77.5q68 -75 68 -223.5 t-119.5 -230.5t-338.5 -82q-143 0 -238.5 24.5t-132.5 41.5z" />
<glyph unicode="t" horiz-adv-x="909" d="M133 440v906l305 49v-318h367v-254h-367v-379q0 -96 34 -153.5t136.5 -57.5t196.5 35l43 -237q-134 -56 -274 -56t-222 34t-131 95q-88 108 -88 336z" />
<glyph unicode="u" horiz-adv-x="1206" d="M133 477v600h305v-563q0 -147 39 -212.5t146 -65.5q63 0 135 10v831h305v-1040q-210 -62 -459 -62q-376 0 -448 299q-23 93 -23 203z" />
<glyph unicode="v" horiz-adv-x="1126" d="M20 1077h324q50 -198 122.5 -417.5t100.5 -292.5q134 368 224 710h315q-186 -628 -416 -1077h-254q-227 447 -416 1077z" />
<glyph unicode="w" horiz-adv-x="1605" d="M20 1077h322q101 -465 170 -704q110 367 184 704h222q86 -396 178 -704q62 212 108.5 421.5t63.5 282.5h317q-199 -707 -358 -1077h-238q-141 430 -190 618q-78 -298 -185 -618h-237q-139 322 -357 1077z" />
<glyph unicode="x" horiz-adv-x="1134" d="M20 0q111 226 375 555q-92 129 -184 261t-182 261h329l213 -327l213 327h316l-369 -518q269 -337 383 -559h-328q-119 231 -227 365q-57 -72 -104 -151t-75 -126t-48 -88h-312z" />
<glyph unicode="y" horiz-adv-x="1120" d="M10 -336l53 244q85 -29 164.5 -29t123.5 44t75 122q-245 483 -406 1032h324q81 -324 229 -710q106 292 211 710h316q-184 -621 -412 -1112q-87 -187 -180 -263q-98 -81 -266 -81q-127 0 -232 43z" />
<glyph unicode="z" horiz-adv-x="1024" d="M72 0v180q134 230 483 643h-459v254h856v-205q-347 -385 -510 -618h521v-254h-891z" />
<glyph unicode="{" horiz-adv-x="759" d="M72 492v241q92 0 133 53.5t41 139.5v309q0 184 97 272q107 97 355 97h41v-244h-51q-92 0 -124 -41t-32 -127v-272q0 -106 -28.5 -180t-114.5 -128q86 -53 114.5 -126.5t28.5 -180.5v-272q0 -86 32 -127t124 -41h51v-244h-41q-360 0 -430 212q-22 69 -22 157v309 q0 86 -41 139.5t-133 53.5z" />
<glyph unicode="|" horiz-adv-x="659" d="M184 -379v1983h291v-1983h-291z" />
<glyph unicode="}" horiz-adv-x="759" d="M20 -135h52q92 0 123.5 41t31.5 127v272q0 106 29 180t115 127q-86 53 -115 127t-29 181v272q0 86 -31.5 127t-123.5 41h-52v244h41q361 0 431 -212q22 -69 22 -157v-309q0 -86 41 -139.5t133 -53.5v-241q-92 0 -133 -53.5t-41 -139.5v-309q0 -185 -97 -273 q-106 -96 -356 -96h-41v244z" />
<glyph unicode="~" d="M47 465q42 237 189 325q57 35 127.5 35t125 -24.5t104.5 -53t96 -53t76.5 -24.5t48 4t34.5 20q38 36 59 125l209 -57q-41 -233 -189 -326q-56 -35 -126.5 -35t-125 25t-105 53.5t-96.5 53t-76.5 24.5t-48 -4t-33.5 -19q-39 -37 -60 -126z" />
<glyph unicode="&#xa1;" horiz-adv-x="585" d="M102 889q0 90 58.5 139t132.5 49t132 -49t58 -139t-58 -139.5t-132 -49.5t-132.5 49.5t-58.5 139.5zM131 8q0 255 47 600h234q45 -331 45 -600v-377h-326v377z" />
<glyph unicode="&#xa2;" d="M92 600q0 282 214 442q67 50 153 76v299h291v-276q113 -17 196 -54l-67 -243q-110 41 -223 41t-183 -77t-70 -212t66 -208t205.5 -73t245.5 43l43 -249q-89 -35 -213 -52v-280h-291v299q-188 51 -277.5 192.5t-89.5 331.5z" />
<glyph unicode="&#xa3;" d="M47 559v248h178v108q0 286 139 419q117 112 351 112q148 0 293 -62l-76 -239q-85 41 -162.5 43t-117.5 -8.5t-68 -39.5q-62 -61 -62 -200v-133h340v-248h-340q-4 -156 -26 -303h534v-256h-870q54 240 65 559h-178z" />
<glyph unicode="&#xa4;" d="M51 385l148 141q-43 80 -43 185q0 104 43 184l-148 141l193 189l151 -148q80 37 188 37t187 -37l152 146l190 -187l-147 -141q43 -80 43 -184t-43 -185l147 -141l-192 -188l-152 147q-80 -37 -186 -37t-189 37l-151 -145zM414 711q0 -88 49 -133.5t119 -45.5t119 45.5 t49 133.5t-49.5 133t-118.5 45q-70 0 -119 -45t-49 -133z" />
<glyph unicode="&#xa5;" d="M-10 1419h348q63 -141 121.5 -283.5t128.5 -277.5q68 135 123 279.5t116 281.5h347q-216 -438 -338 -653h204v-203h-303v-133h303v-203h-303v-227h-309v227h-303v203h303v133h-303v203h205q-254 460 -340 653z" />
<glyph unicode="&#xa6;" horiz-adv-x="618" d="M164 -379v813h291v-813h-291zM164 791v813h291v-813h-291z" />
<glyph unicode="&#xa7;" horiz-adv-x="1054" d="M57 -133l76 244q118 -45 167 -56q95 -20 182.5 -20t126 17.5t38.5 60.5q0 40 -29 60q-40 26 -138.5 60t-169 63.5t-122.5 73.5q-112 93 -112 261q0 96 46 161.5t111 129.5q-98 82 -98 196q0 158 116 246t333 88q195 0 372 -74l-75 -245q-139 61 -290 61t-151 -70 q0 -43 35 -68.5t126 -56.5t163 -63.5t121 -75.5q102 -90 102 -246q0 -84 -29 -131q-39 -61 -122 -137q116 -87 116 -235q0 -334 -442 -334q-278 0 -453 90zM350 647q0 -72 68.5 -112.5t210.5 -88.5q76 67 76 134q0 102 -156 161q-53 20 -123 45q-76 -67 -76 -139z" />
<glyph unicode="&#xa8;" horiz-adv-x="1097" d="M162 1389q0 72 47 113.5t110 41.5t110.5 -42t47.5 -113q0 -72 -47.5 -114t-110.5 -42t-110 42t-47 114zM618 1389q0 72 47.5 113.5t110.5 41.5t110.5 -42t47.5 -113q0 -72 -47.5 -114t-110.5 -42t-110.5 42t-47.5 114z" />
<glyph unicode="&#xa9;" horiz-adv-x="1630" d="M102 711q0 174 58.5 312t157.5 233q201 196 497 196t497 -196q99 -95 157.5 -233t58.5 -312t-58.5 -312.5t-157 -233.5t-227.5 -145.5t-270 -50.5t-270 50.5t-227.5 145.5t-157 233.5t-58.5 312.5zM311 711q0 -244 141 -395q139 -150 363 -150t363 150q141 151 141 395 q0 243 -141 395q-137 149 -363 149t-363 -149q-141 -152 -141 -395zM473 713.5q0 185.5 101.5 286t267.5 100.5q129 0 241 -66l-65 -180q-71 39 -148 39q-159 0 -159 -168q0 -85 23 -121q42 -67 114.5 -67t114 14t73.5 27l58 -187q-122 -63 -246 -63q-182 0 -278.5 100 t-96.5 285.5z" />
<glyph unicode="&#xaa;" horiz-adv-x="817" d="M49 889q0 128 101 191q88 53 239 53q59 0 131 -13v21q0 121 -153 121q-122 0 -213 -31l-31 182q120 37 243 37t190 -21.5t108 -62.5q75 -75 75 -229v-465q-193 -41 -349.5 -41t-248.5 57t-92 201zM279 895q0 -53 36 -71.5t93.5 -18.5t111.5 6v160q-35 10 -93 10 t-103 -16.5t-45 -69.5z" />
<glyph unicode="&#xab;" horiz-adv-x="1222" d="M41 582l336 491l231 -108l-207 -383l207 -383l-231 -109zM594 582l336 491l231 -108l-207 -383l207 -383l-231 -109z" />
<glyph unicode="&#xac;" d="M102 575v256h963v-735h-279v479h-684z" />
<glyph unicode="&#xad;" horiz-adv-x="696" d="M51 473v277h594v-277h-594z" />
<glyph unicode="&#xae;" horiz-adv-x="1630" d="M102 711q0 174 58.5 312t157.5 233q201 196 497 196t497 -196q216 -208 216 -546q0 -175 -58.5 -312.5t-157 -232.5t-227.5 -145.5t-270 -50.5t-270 50.5t-227 145.5q-216 208 -216 546zM311 711q0 -244 141 -395q139 -150 363 -150t363 150q141 151 141 395 q0 243 -141 395q-137 149 -363 149t-363 -149q-141 -152 -141 -395zM545 362v701q136 31 235 31q330 0 330 -248q0 -127 -111 -187q65 -99 96 -172t54 -125h-209q-35 78 -59.5 136.5t-55.5 105.5h-82v-242h-198zM743 764h37q66 0 98.5 17.5t32.5 66.5q0 74 -102 74 q-44 0 -66 -4v-154z" />
<glyph unicode="&#xaf;" horiz-adv-x="770" d="M55 1276v209h660v-209h-660z" />
<glyph unicode="&#xb0;" horiz-adv-x="743" d="M41 1282q0 142 98 232q92 85 232 85q139 0 231 -85q98 -90 98 -232q0 -141 -98 -232q-91 -85 -231 -85q-141 0 -232 85q-98 91 -98 232zM258 1282q0 -53 35 -85t78 -32t77.5 32t34.5 85t-34.5 85t-77.5 32t-78 -32t-35 -85z" />
<glyph unicode="&#xb1;" d="M100 0v256h963v-256h-963zM100 676v256h342v348h279v-348h342v-256h-342v-348h-279v348h-342z" />
<glyph unicode="&#xb2;" horiz-adv-x="743" d="M33 1331q53 45 136 83t169 38t142.5 -18.5t91.5 -51.5q67 -66 67 -182q0 -113 -107 -210q-30 -27 -63 -55q-92 -78 -129 -130h319v-187h-587q-2 16 -2 30v28q0 100 54 181t134 148.5t114 102.5t34 69q0 70 -72 70q-103 0 -195 -76z" />
<glyph unicode="&#xb3;" horiz-adv-x="743" d="M35 657l47 183q109 -45 230.5 -45t121.5 75q0 84 -143 84h-84v168h84q47 0 77.5 18.5t30.5 55.5q0 66 -84 66t-190 -52l-78 162q51 33 128 56.5t155 23.5t134 -18.5t90 -49.5q62 -58 62 -155.5t-86 -163.5q125 -59 125 -197q0 -189 -185 -246q-67 -20 -132.5 -20t-103 4 t-74.5 12q-89 21 -125 39z" />
<glyph unicode="&#xb4;" horiz-adv-x="585" d="M53 1305l291 331l186 -172l-337 -284z" />
<glyph unicode="&#xb5;" horiz-adv-x="1216" d="M143 -340v1417h306v-577q0 -153 45 -210q43 -54 141 -54q60 0 133 10v831h305v-1040q-198 -57 -432 -57q-121 0 -203 38q11 -113 11 -200v-158h-306z" />
<glyph unicode="&#xb6;" horiz-adv-x="1454" d="M82 984q0 214 175 333t505 119q308 0 528 -54v-1763h-289v1557q-58 8 -180 8v-1565h-291v909q-229 31 -338.5 136.5t-109.5 319.5z" />
<glyph unicode="&#xb7;" horiz-adv-x="503" d="M61 604q0 92 58.5 140t132.5 48t132 -48t58 -140t-58 -140.5t-132 -48.5t-132.5 48.5t-58.5 140.5z" />
<glyph unicode="&#xb8;" horiz-adv-x="667" d="M92 -426l37 178q77 -22 117 -22q80 0 84 51q4 54 -88 76l-25 6q13 43 43.5 105.5t36.5 72.5h203q-46 -89 -60 -123q115 -58 115 -163t-77 -156.5t-206 -51.5q-79 0 -180 27z" />
<glyph unicode="&#xb9;" horiz-adv-x="743" d="M78 1266q191 78 307 170h178v-818h-233v553q-73 -41 -189 -84z" />
<glyph unicode="&#xba;" horiz-adv-x="935" d="M68 1036q0 192 112 306q109 110 289 110q181 0 288 -110q111 -115 111 -305q0 -97 -29.5 -173t-81.5 -128q-109 -109 -288 -109q-178 0 -289 109q-112 110 -112 300zM301 1039.5q0 -95.5 44 -152t124 -56.5t123 56.5t43 151.5t-43 151.5t-122 56.5t-124 -56t-45 -151.5z " />
<glyph unicode="&#xbb;" horiz-adv-x="1222" d="M61 199l207 383l-207 383l232 108l336 -491l-336 -492zM614 199l207 383l-207 383l232 108l336 -491l-336 -492z" />
<glyph unicode="&#xbc;" horiz-adv-x="1798" d="M41 1266q191 78 307 170h178v-818h-233v553q-73 -41 -189 -84zM379 0l731 1419h279l-728 -1419h-282zM1096 179v147q162 274 373 496h202v-473h95v-170h-95v-177h-192v177h-383zM1311 349h168v245q-98 -110 -168 -245z" />
<glyph unicode="&#xbd;" horiz-adv-x="1798" d="M41 1266q191 78 307 170h178v-818h-233v553q-73 -41 -189 -84zM322 0l731 1419h279l-728 -1419h-282zM1088 717q53 45 136 83t169 38t142.5 -18.5t91.5 -51.5q67 -66 67 -182q0 -113 -107 -210q-30 -27 -63 -55q-92 -78 -129 -130h319v-187h-587q-2 16 -2 30v28 q0 100 54 181t134 148.5t114 102.5t34 69q0 70 -72 70q-103 0 -195 -76z" />
<glyph unicode="&#xbe;" horiz-adv-x="1798" d="M47 657l47 183q109 -45 230.5 -45t121.5 75q0 84 -143 84h-84v168h84q47 0 77.5 18.5t30.5 55.5q0 66 -84 66t-190 -52l-78 162q51 33 128 56.5t155 23.5t134 -18.5t90 -49.5q62 -58 62 -155.5t-86 -163.5q125 -59 125 -197q0 -189 -185 -246q-67 -20 -132.5 -20t-103 4 t-74.5 12q-89 21 -125 39zM422 0l731 1419h279l-728 -1419h-282zM1096 179v147q162 274 373 496h202v-473h95v-170h-95v-177h-192v177h-383zM1311 349h168v245q-98 -110 -168 -245z" />
<glyph unicode="&#xbf;" horiz-adv-x="931" d="M51 -43q0 142 122 273q34 36 64 65t56 56.5t47 58.5q51 71 51 133v25q0 16 -2 28h270q7 -35 7 -91t-14.5 -103.5t-37.5 -87.5q-29 -48 -97 -117.5t-107 -115.5t-39 -100.5t37.5 -89t111.5 -34.5q131 0 285 77l86 -231q-80 -51 -188.5 -78.5t-226.5 -27.5t-203 34.5 t-134 88.5q-88 96 -88 237zM330 887q0 90 58 139t132 49t132.5 -49t58.5 -139t-58.5 -139.5t-132.5 -49.5t-132 49.5t-58 139.5z" />
<glyph unicode="&#xc0;" horiz-adv-x="1476" d="M20 0q321 919 566 1419h305q260 -546 565 -1419h-342l-104 307h-553q-94 -271 -105 -307h-332zM485 1792l186 172l291 -331l-139 -125zM530 561h404q-87 242 -118.5 321t-52 132t-32.5 84q-10 -31 -30.5 -84t-47 -123t-58.5 -154t-65 -176z" />
<glyph unicode="&#xc1;" horiz-adv-x="1476" d="M20 0q321 919 566 1419h305q260 -546 565 -1419h-342l-104 307h-553q-94 -271 -105 -307h-332zM497 1633l291 331l186 -172l-337 -284zM530 561h404q-87 242 -118.5 321t-52 132t-32.5 84q-10 -31 -30.5 -84t-47 -123t-58.5 -154t-65 -176z" />
<glyph unicode="&#xc2;" horiz-adv-x="1476" d="M20 0q321 919 566 1419h305q260 -546 565 -1419h-342l-104 307h-553q-94 -271 -105 -307h-332zM416 1661l322 281l317 -281l-113 -135l-204 157l-205 -157zM530 561h404q-87 242 -118.5 321t-52 132t-32.5 84q-10 -31 -30.5 -84t-47 -123t-58.5 -154t-65 -176z" />
<glyph unicode="&#xc3;" horiz-adv-x="1476" d="M20 0q321 919 566 1419h305q260 -546 565 -1419h-342l-104 307h-553q-94 -271 -105 -307h-332zM364 1659q52 134 156 189q39 20 81 20t73.5 -11.5t62.5 -24.5t60.5 -24.5t64.5 -11.5q69 0 110 88l150 -98q-52 -134 -156 -188q-39 -21 -81 -21t-73.5 11.5t-62.5 24.5 q-86 36 -125 36q-70 0 -110 -88zM530 561h404q-87 242 -118.5 321t-52 132t-32.5 84q-10 -31 -30.5 -84t-47 -123t-58.5 -154t-65 -176z" />
<glyph unicode="&#xc4;" horiz-adv-x="1476" d="M20 0q321 919 566 1419h305q260 -546 565 -1419h-342l-104 307h-553q-94 -271 -105 -307h-332zM338 1717q0 72 47 113.5t110 41.5t110.5 -42t47.5 -113q0 -72 -47.5 -114t-110.5 -42t-110 42t-47 114zM530 561h404q-87 242 -118.5 321t-52 132t-32.5 84 q-10 -31 -30.5 -84t-47 -123t-58.5 -154t-65 -176zM794 1717q0 72 47.5 113.5t110.5 41.5t110.5 -42t47.5 -113q0 -72 -47.5 -114t-110.5 -42t-110.5 42t-47.5 114z" />
<glyph unicode="&#xc5;" horiz-adv-x="1476" d="M20 0q300 858 553 1393q-75 66 -75 178q0 110 72 175q68 60 167 60q103 0 171 -60q73 -64 73 -177.5t-78 -175.5q259 -552 553 -1393h-342l-104 307h-553q-94 -271 -105 -307h-332zM530 561h404q-87 242 -118.5 321t-52 132t-32.5 84q-10 -31 -30.5 -84t-47 -123 t-58.5 -154t-65 -176zM645 1571q0 -47 28.5 -71.5t64.5 -24.5t64.5 24.5t28.5 71.5t-28.5 71.5t-64.5 24.5t-64.5 -24.5t-28.5 -71.5z" />
<glyph unicode="&#xc6;" horiz-adv-x="2035" d="M20 0q507 911 873 1419h1024v-268h-604v-279h532v-262h-532v-342h651v-268h-960v336h-451q-43 -78 -94 -168t-88 -168h-351zM682 590h322v520q-100 -142 -193.5 -302.5t-128.5 -217.5z" />
<glyph unicode="&#xc7;" horiz-adv-x="1327" d="M102 711q0 342 208 547q195 194 517 194q150 0 293 -44q86 -26 146 -65l-92 -258q-158 84 -351 84q-263 0 -356 -243q-33 -86 -33 -196.5t21.5 -195.5t69.5 -146q104 -134 315 -134q179 0 298 54q33 14 60 26l88 -256q-143 -90 -401 -105q-15 -30 -25 -55 q115 -58 115 -163t-78 -156.5t-205 -51.5q-79 0 -180 27l37 178q77 -22 117 -22q80 0 84 51q4 54 -88 76l-25 6q8 25 21.5 56.5t25.5 60.5q-287 35 -434.5 222t-147.5 509z" />
<glyph unicode="&#xc8;" horiz-adv-x="1241" d="M164 0v1419h958v-268h-639v-279h568v-262h-568v-342h686v-268h-1005zM391 1792l186 172l291 -331l-139 -125z" />
<glyph unicode="&#xc9;" horiz-adv-x="1241" d="M164 0v1419h958v-268h-639v-279h568v-262h-568v-342h686v-268h-1005zM424 1633l291 331l186 -172l-337 -284z" />
<glyph unicode="&#xca;" horiz-adv-x="1241" d="M164 0v1419h958v-268h-639v-279h568v-262h-568v-342h686v-268h-1005zM326 1661l322 281l317 -281l-113 -135l-204 157l-205 -157z" />
<glyph unicode="&#xcb;" horiz-adv-x="1241" d="M164 0v1419h958v-268h-639v-279h568v-262h-568v-342h686v-268h-1005zM252 1717q0 72 47 113.5t110 41.5t110.5 -42t47.5 -113q0 -72 -47.5 -114t-110.5 -42t-110 42t-47 114zM708 1717q0 72 47.5 113.5t110.5 41.5t110.5 -42t47.5 -113q0 -72 -47.5 -114t-110.5 -42 t-110.5 42t-47.5 114z" />
<glyph unicode="&#xcc;" horiz-adv-x="647" d="M72 1792l186 172l291 -331l-139 -125zM164 0v1419h319v-1419h-319z" />
<glyph unicode="&#xcd;" horiz-adv-x="647" d="M102 1633l291 331l186 -172l-337 -284zM164 0v1419h319v-1419h-319z" />
<glyph unicode="&#xce;" horiz-adv-x="647" d="M8 1661l322 281l317 -281l-113 -135l-204 157l-205 -157zM164 0v1419h319v-1419h-319z" />
<glyph unicode="&#xcf;" horiz-adv-x="647" d="M-57 1717q0 72 47 113.5t110 41.5t110.5 -42t47.5 -113q0 -72 -47.5 -114t-110.5 -42t-110 42t-47 114zM164 0v1419h319v-1419h-319zM399 1717q0 72 47.5 113.5t110.5 41.5t110.5 -42t47.5 -113q0 -72 -47.5 -114t-110.5 -42t-110.5 42t-47.5 114z" />
<glyph unicode="&#xd0;" horiz-adv-x="1531" d="M20 618v236h166v547q194 35 406.5 35t361 -41t254.5 -129q222 -183 222 -555q0 -361 -220 -549q-212 -180 -598 -180q-244 0 -426 36v600h-166zM506 260q46 -4 123 -4q240 0 355.5 121t115.5 339t-110.5 332.5t-350.5 114.5q-87 0 -133 -6v-303h258v-236h-258v-358z" />
<glyph unicode="&#xd1;" horiz-adv-x="1548" d="M164 0v1419h260q244 -244 643 -837v837h317v-1419h-268q-301 536 -637 930v-930h-315zM399 1659q52 134 156 189q39 20 81 20t73.5 -11.5t62.5 -24.5t60.5 -24.5t64.5 -11.5q69 0 110 88l150 -98q-52 -134 -156 -188q-39 -21 -81 -21t-73.5 11.5t-62.5 24.5 q-86 36 -125 36q-70 0 -110 -88z" />
<glyph unicode="&#xd2;" horiz-adv-x="1617" d="M102 711q0 347 212 553q195 188 495 188q307 0 499 -188q208 -204 208 -553q0 -351 -203 -552q-190 -188 -504 -188q-304 0 -499 188q-208 200 -208 552zM432 710q0 -103 25.5 -187.5t74.5 -144.5q100 -126 277 -126t277 126q100 124 100 333q0 210 -100 335t-277 125 q-175 0 -277 -127q-100 -125 -100 -334zM557 1792l186 172l291 -331l-139 -125z" />
<glyph unicode="&#xd3;" horiz-adv-x="1617" d="M102 711q0 347 212 553q195 188 495 188q307 0 499 -188q208 -204 208 -553q0 -351 -203 -552q-190 -188 -504 -188q-304 0 -499 188q-208 200 -208 552zM432 710q0 -103 25.5 -187.5t74.5 -144.5q100 -126 277 -126t277 126q100 124 100 333q0 210 -100 335t-277 125 q-175 0 -277 -127q-100 -125 -100 -334zM573 1633l291 331l186 -172l-337 -284z" />
<glyph unicode="&#xd4;" horiz-adv-x="1617" d="M102 711q0 347 212 553q195 188 495 188q307 0 499 -188q208 -204 208 -553q0 -351 -203 -552q-190 -188 -504 -188q-304 0 -499 188q-208 200 -208 552zM432 710q0 -103 25.5 -187.5t74.5 -144.5q100 -126 277 -126t277 126q100 124 100 333q0 210 -100 335t-277 125 q-175 0 -277 -127q-100 -125 -100 -334zM489 1661l322 281l317 -281l-113 -135l-204 157l-205 -157z" />
<glyph unicode="&#xd5;" horiz-adv-x="1617" d="M102 711q0 347 212 553q195 188 495 188q307 0 499 -188q208 -204 208 -553q0 -351 -203 -552q-190 -188 -504 -188q-304 0 -499 188q-208 200 -208 552zM432 710q0 -103 25.5 -187.5t74.5 -144.5q100 -126 277 -126t277 126q100 124 100 333q0 210 -100 335t-277 125 q-175 0 -277 -127q-100 -125 -100 -334zM434 1659q52 134 156 189q39 20 81 20t73.5 -11.5t62.5 -24.5t60.5 -24.5t64.5 -11.5q69 0 110 88l150 -98q-52 -134 -156 -188q-39 -21 -81 -21t-73.5 11.5t-62.5 24.5q-86 36 -125 36q-70 0 -110 -88z" />
<glyph unicode="&#xd6;" horiz-adv-x="1617" d="M102 711q0 347 212 553q195 188 495 188q307 0 499 -188q208 -204 208 -553q0 -351 -203 -552q-190 -188 -504 -188q-304 0 -499 188q-208 200 -208 552zM410 1717q0 72 47 113.5t110 41.5t110.5 -42t47.5 -113q0 -72 -47.5 -114t-110.5 -42t-110 42t-47 114zM432 710 q0 -103 25.5 -187.5t74.5 -144.5q100 -126 277 -126t277 126q100 124 100 333q0 210 -100 335t-277 125q-175 0 -277 -127q-100 -125 -100 -334zM866 1717q0 72 47.5 113.5t110.5 41.5t110.5 -42t47.5 -113q0 -72 -47.5 -114t-110.5 -42t-110.5 42t-47.5 114z" />
<glyph unicode="&#xd7;" d="M127 336l279 276l-279 279l178 178l277 -278l278 278l178 -178l-278 -279l278 -276l-178 -178l-278 278l-277 -278z" />
<glyph unicode="&#xd8;" horiz-adv-x="1617" d="M102 711q0 347 212 553q195 188 495 188q203 0 365 -90l114 149l174 -129l-121 -155q175 -196 175 -516q0 -351 -203 -552q-190 -188 -504 -188q-216 0 -369 90l-118 -153l-175 129l125 160q-170 195 -170 514zM432 691.5q0 -121.5 47 -226.5l512 661q-80 45 -176 45 t-165.5 -33.5t-118 -94t-74 -145.5t-25.5 -206.5zM623 297q84 -45 179 -45t165.5 32.5t119 93t74 145t25.5 210t-49 230.5z" />
<glyph unicode="&#xd9;" horiz-adv-x="1447" d="M143 537v882h320v-856q0 -315 260 -315q117 0 189.5 71.5t72.5 243.5v856h320v-882q0 -261 -141 -409q-150 -157 -445 -157q-288 0 -437 159q-139 147 -139 407zM430 1792l186 172l291 -331l-139 -125z" />
<glyph unicode="&#xda;" horiz-adv-x="1447" d="M143 537v882h320v-856q0 -315 260 -315q117 0 189.5 71.5t72.5 243.5v856h320v-882q0 -261 -141 -409q-150 -157 -445 -157q-288 0 -437 159q-139 147 -139 407zM524 1633l291 331l186 -172l-337 -284z" />
<glyph unicode="&#xdb;" horiz-adv-x="1447" d="M143 537v882h320v-856q0 -315 260 -315q117 0 189.5 71.5t72.5 243.5v856h320v-882q0 -261 -141 -409q-150 -157 -445 -157q-288 0 -437 159q-139 147 -139 407zM401 1661l322 281l317 -281l-113 -135l-204 157l-205 -157z" />
<glyph unicode="&#xdc;" horiz-adv-x="1447" d="M143 537v882h320v-856q0 -315 260 -315q117 0 189.5 71.5t72.5 243.5v856h320v-882q0 -261 -141 -409q-150 -157 -445 -157q-288 0 -437 159q-139 147 -139 407zM338 1717q0 72 47 113.5t110 41.5t110.5 -42t47.5 -113q0 -72 -47.5 -114t-110.5 -42t-110 42t-47 114z M794 1717q0 72 47.5 113.5t110.5 41.5t110.5 -42t47.5 -113q0 -72 -47.5 -114t-110.5 -42t-110.5 42t-47.5 114z" />
<glyph unicode="&#xdd;" horiz-adv-x="1353" d="M10 1419h371q133 -297 303 -583q193 326 307 583h352q-221 -433 -505 -876v-543h-320v539q-289 450 -508 880zM487 1633l291 331l186 -172l-337 -284z" />
<glyph unicode="&#xde;" horiz-adv-x="1318" d="M164 0v1419h319v-205q49 7 93 7h55q443 0 571 -257q45 -90 45 -219q0 -256 -172 -369.5t-491 -113.5h-101v-262h-319zM483 535h101q166 0 250 45t84 168q0 165 -180 193q-58 9 -119 9t-136 -6v-409z" />
<glyph unicode="&#xdf;" horiz-adv-x="1349" d="M143 0v1092q0 226 119 357q126 140 367 140q225 0 346 -101q106 -89 106 -239q0 -86 -17 -137t-60 -101t-79 -95.5t-36 -89.5t16.5 -66.5t42.5 -43.5q33 -25 123 -75.5t145.5 -120t55.5 -180.5q0 -176 -100.5 -270.5t-331.5 -94.5q-113 0 -180.5 20.5t-108.5 37.5l51 246 q135 -54 232 -54q137 0 137 111q0 53 -55.5 95t-128 75t-108.5 63.5t-55 64.5q-30 56 -30 141t39 143.5t83 109.5t62.5 86t18.5 88q0 133 -160 133q-195 0 -195 -237v-1098h-299z" />
<glyph unicode="&#xe0;" horiz-adv-x="1132" d="M72 332q0 179 138 264q121 74 316 74q112 0 181 -19v29q0 172 -211 172q-167 0 -285 -43l-39 246q172 51 332.5 51t251 -31t144.5 -88q99 -105 99 -321v-635q-66 -14 -182.5 -34t-251 -20t-220 18.5t-147.5 60.5q-126 86 -126 276zM293 1464l186 172l291 -331l-139 -125z M375 340q0 -72 48 -99.5t141 -27.5t143 8v232q-54 12 -123 12q-209 0 -209 -125z" />
<glyph unicode="&#xe1;" horiz-adv-x="1132" d="M72 332q0 179 138 264q121 74 316 74q112 0 181 -19v29q0 172 -211 172q-167 0 -285 -43l-39 246q172 51 332.5 51t251 -31t144.5 -88q99 -105 99 -321v-635q-66 -14 -182.5 -34t-251 -20t-220 18.5t-147.5 60.5q-126 86 -126 276zM336 1305l291 331l186 -172l-337 -284z M375 340q0 -72 48 -99.5t141 -27.5t143 8v232q-54 12 -123 12q-209 0 -209 -125z" />
<glyph unicode="&#xe2;" horiz-adv-x="1132" d="M72 332q0 179 138 264q121 74 316 74q112 0 181 -19v29q0 172 -211 172q-167 0 -285 -43l-39 246q172 51 332.5 51t251 -31t144.5 -88q99 -105 99 -321v-635q-66 -14 -182.5 -34t-251 -20t-220 18.5t-147.5 60.5q-126 86 -126 276zM213 1321l322 281l317 -281l-113 -135 l-204 157l-205 -157zM375 340q0 -72 48 -99.5t141 -27.5t143 8v232q-54 12 -123 12q-209 0 -209 -125z" />
<glyph unicode="&#xe3;" horiz-adv-x="1132" d="M72 332q0 179 138 264q121 74 316 74q112 0 181 -19v29q0 172 -211 172q-167 0 -285 -43l-39 246q172 51 332.5 51t251 -31t144.5 -88q99 -105 99 -321v-635q-66 -14 -182.5 -34t-251 -20t-220 18.5t-147.5 60.5q-126 86 -126 276zM174 1325q52 134 156 189q39 20 81 20 t73.5 -11.5t62.5 -24.5t60.5 -24.5t64.5 -11.5q69 0 110 88l150 -98q-52 -134 -156 -188q-39 -21 -81 -21t-73.5 11.5t-62.5 24.5q-86 36 -125 36q-70 0 -110 -88zM375 340q0 -72 48 -99.5t141 -27.5t143 8v232q-54 12 -123 12q-209 0 -209 -125z" />
<glyph unicode="&#xe4;" horiz-adv-x="1132" d="M72 332q0 179 138 264q121 74 316 74q112 0 181 -19v29q0 172 -211 172q-167 0 -285 -43l-39 246q172 51 332.5 51t251 -31t144.5 -88q99 -105 99 -321v-635q-66 -14 -182.5 -34t-251 -20t-220 18.5t-147.5 60.5q-126 86 -126 276zM158 1389q0 72 47 113.5t110 41.5 t110.5 -42t47.5 -113q0 -72 -47.5 -114t-110.5 -42t-110 42t-47 114zM375 340q0 -72 48 -99.5t141 -27.5t143 8v232q-54 12 -123 12q-209 0 -209 -125zM614 1389q0 72 47.5 113.5t110.5 41.5t110.5 -42t47.5 -113q0 -72 -47.5 -114t-110.5 -42t-110.5 42t-47.5 114z" />
<glyph unicode="&#xe5;" horiz-adv-x="1132" d="M72 332q0 179 138 264q121 74 316 74q112 0 181 -19v29q0 172 -211 172q-167 0 -285 -43l-39 246q172 51 332.5 51t251 -31t144.5 -88q99 -105 99 -321v-635q-66 -14 -182.5 -34t-251 -20t-220 18.5t-147.5 60.5q-126 86 -126 276zM326 1432q0 111 73 174q70 61 167 61 q101 0 171 -61q72 -62 72 -174q0 -168 -150 -220q-44 -16 -92 -16t-91 15.5t-77 44.5q-73 64 -73 176zM375 340q0 -72 48 -99.5t141 -27.5t143 8v232q-54 12 -123 12q-209 0 -209 -125zM474 1432q0 -47 28.5 -72t64.5 -25t64.5 25t28.5 72t-28.5 71.5t-64.5 24.5 t-64.5 -24.5t-28.5 -71.5z" />
<glyph unicode="&#xe6;" horiz-adv-x="1789" d="M72 329.5q0 96.5 37.5 162t100.5 104.5q121 74 316 74q112 0 181 -19v35q0 78 -47.5 122t-189 44t-259.5 -43l-39 246q172 51 358 51q129 0 188 -26q95 -41 152 -119q130 145 347 145q220 0 349 -142q132 -143 132 -411q0 -40 -6 -115h-693q10 -94 88 -149.5t232 -55.5 t274 54l41 -248q-86 -41 -264 -61q-57 -7 -115 -7q-222 0 -364 97q-154 -90 -356 -91q-340 0 -431 189q-32 67 -32 163.5zM375 340q0 -72 48 -99.5t121 -27.5q147 0 218 31q-47 120 -51 213q-58 8 -127 8q-209 0 -209 -125zM997 647h404q-7 137 -108 189q-36 18 -88 18 t-89 -17.5t-62 -46.5q-40 -46 -57 -143z" />
<glyph unicode="&#xe7;" horiz-adv-x="1024" d="M92 539q0 241 148 400q155 167 407 167q156 0 297 -59l-63 -244q-110 41 -209 41q-135 0 -202 -84t-67 -225t62.5 -221.5t205.5 -80.5t249 43l43 -249q-109 -46 -267 -54q-10 -20 -24 -55q114 -57 114 -162.5t-77.5 -157t-204.5 -51.5q-79 0 -180 27l36 178 q77 -22 116 -22q81 0 85 51q4 54 -88 76l-24 6q17 57 51 123q-204 38 -310 193q-98 141 -98 360z" />
<glyph unicode="&#xe8;" horiz-adv-x="1196" d="M92 530q0 272 160 430q147 146 366 146t352.5 -140.5t133.5 -412.5q0 -40 -6 -115h-692q10 -94 87.5 -149.5t231.5 -55.5t274 54l41 -248q-86 -41 -264 -61q-57 -7 -114 -7q-280 0 -432 161q-138 147 -138 398zM346 1464l186 172l291 -331l-139 -125zM406 647h403 q-7 136 -107 189q-36 18 -88.5 18t-89.5 -17.5t-62 -46.5q-41 -48 -56 -143z" />
<glyph unicode="&#xe9;" horiz-adv-x="1196" d="M92 530q0 272 160 430q147 146 366 146t352.5 -140.5t133.5 -412.5q0 -40 -6 -115h-692q10 -94 87.5 -149.5t231.5 -55.5t274 54l41 -248q-86 -41 -264 -61q-57 -7 -114 -7q-280 0 -432 161q-138 147 -138 398zM379 1305l291 331l186 -172l-337 -284zM406 647h403 q-7 136 -107 189q-36 18 -88.5 18t-89.5 -17.5t-62 -46.5q-41 -48 -56 -143z" />
<glyph unicode="&#xea;" horiz-adv-x="1196" d="M92 530q0 272 160 430q147 146 366 146t352.5 -140.5t133.5 -412.5q0 -40 -6 -115h-692q10 -94 87.5 -149.5t231.5 -55.5t274 54l41 -248q-86 -41 -264 -61q-57 -7 -114 -7q-280 0 -432 161q-138 147 -138 398zM276 1321l322 281l317 -281l-113 -135l-204 157l-205 -157z M406 647h403q-7 136 -107 189q-36 18 -88.5 18t-89.5 -17.5t-62 -46.5q-41 -48 -56 -143z" />
<glyph unicode="&#xeb;" horiz-adv-x="1196" d="M92 530q0 272 160 430q147 146 366 146t352.5 -140.5t133.5 -412.5q0 -40 -6 -115h-692q10 -94 87.5 -149.5t231.5 -55.5t274 54l41 -248q-86 -41 -264 -61q-57 -7 -114 -7q-280 0 -432 161q-138 147 -138 398zM223 1389q0 72 47 113.5t110 41.5t110.5 -42t47.5 -113 q0 -72 -47.5 -114t-110.5 -42t-110 42t-47 114zM406 647h403q-7 136 -107 189q-36 18 -88.5 18t-89.5 -17.5t-62 -46.5q-41 -48 -56 -143zM679 1389q0 72 47.5 113.5t110.5 41.5t110.5 -42t47.5 -113q0 -72 -47.5 -114t-110.5 -42t-110.5 42t-47.5 114z" />
<glyph unicode="&#xec;" horiz-adv-x="591" d="M45 1464l186 172l291 -331l-139 -125zM143 0v1077h306v-1077h-306z" />
<glyph unicode="&#xed;" horiz-adv-x="591" d="M84 1305l291 331l186 -172l-337 -284zM143 0v1077h306v-1077h-306z" />
<glyph unicode="&#xee;" horiz-adv-x="591" d="M-20 1321l322 281l317 -281l-113 -135l-204 157l-205 -157zM143 0v1077h306v-1077h-306z" />
<glyph unicode="&#xef;" horiz-adv-x="591" d="M-98 1389q0 72 47 113.5t110 41.5t110.5 -42t47.5 -113q0 -72 -47.5 -114t-110.5 -42t-110 42t-47 114zM143 0v1077h306v-1077h-306zM358 1389q0 72 47.5 113.5t110.5 41.5t110.5 -42t47.5 -113q0 -72 -47.5 -114t-110.5 -42t-110.5 42t-47.5 114z" />
<glyph unicode="&#xf0;" horiz-adv-x="1230" d="M92 479q0 358 287 469q96 37 187 37q144 0 249 -51q-25 109 -88 211l-227 -76l-60 172l164 55q-65 65 -153 125l170 176q144 -82 256 -208l235 79l59 -172l-182 -61q154 -263 154 -571q0 -491 -297 -642q-101 -51 -235 -51t-230 41t-161 110q-128 136 -128 357zM399 483 q0 -111 50.5 -179t156.5 -68q225 0 225 405v13q0 10 -2 20q-83 67 -204 67q-226 0 -226 -258z" />
<glyph unicode="&#xf1;" horiz-adv-x="1206" d="M143 0v1040q210 62 459 62q375 0 448 -293q23 -90 23 -201v-608h-305v571q0 147 -39 209t-128.5 62t-151.5 -11v-831h-306zM229 1325q52 134 156 189q39 20 81 20t73.5 -11.5t62.5 -24.5t60.5 -24.5t64.5 -11.5q69 0 110 88l150 -98q-52 -134 -156 -188q-39 -21 -81 -21 t-73.5 11.5t-62.5 24.5q-86 36 -125 36q-70 0 -110 -88z" />
<glyph unicode="&#xf2;" horiz-adv-x="1243" d="M92 541q0 253 150 409t381 156q233 0 381 -156q147 -155 147 -409q0 -258 -143 -413q-146 -157 -385 -157q-238 0 -383 157q-148 159 -148 413zM369 1464l186 172l291 -331l-139 -125zM403 541q0 -141 57.5 -224.5t162.5 -83.5q104 0 160.5 83.5t56.5 224.5t-56.5 222 t-160.5 81t-162 -81t-58 -222z" />
<glyph unicode="&#xf3;" horiz-adv-x="1243" d="M92 541q0 253 150 409t381 156q233 0 381 -156q147 -155 147 -409q0 -258 -143 -413q-146 -157 -385 -157q-238 0 -383 157q-148 159 -148 413zM397 1305l291 331l186 -172l-337 -284zM403 541q0 -141 57.5 -224.5t162.5 -83.5q104 0 160.5 83.5t56.5 224.5t-56.5 222 t-160.5 81t-162 -81t-58 -222z" />
<glyph unicode="&#xf4;" horiz-adv-x="1243" d="M92 541q0 253 150 409t381 156q233 0 381 -156q147 -155 147 -409q0 -258 -143 -413q-146 -157 -385 -157q-238 0 -383 157q-148 159 -148 413zM299 1321l322 281l317 -281l-113 -135l-204 157l-205 -157zM403 541q0 -141 57.5 -224.5t162.5 -83.5q104 0 160.5 83.5 t56.5 224.5t-56.5 222t-160.5 81t-162 -81t-58 -222z" />
<glyph unicode="&#xf5;" horiz-adv-x="1243" d="M92 541q0 253 150 409t381 156q233 0 381 -156q147 -155 147 -409q0 -258 -143 -413q-146 -157 -385 -157q-238 0 -383 157q-148 159 -148 413zM241 1325q52 134 156 189q39 20 81 20t73.5 -11.5t62.5 -24.5t60.5 -24.5t64.5 -11.5q69 0 110 88l150 -98 q-52 -134 -156 -188q-39 -21 -81 -21t-73.5 11.5t-62.5 24.5q-86 36 -125 36q-70 0 -110 -88zM403 541q0 -141 57.5 -224.5t162.5 -83.5q104 0 160.5 83.5t56.5 224.5t-56.5 222t-160.5 81t-162 -81t-58 -222z" />
<glyph unicode="&#xf6;" horiz-adv-x="1243" d="M92 541q0 253 150 409t381 156q233 0 381 -156q147 -155 147 -409q0 -258 -143 -413q-146 -157 -385 -157q-238 0 -383 157q-148 159 -148 413zM236 1389q0 72 47 113.5t110 41.5t110.5 -42t47.5 -113q0 -72 -47.5 -114t-110.5 -42t-110 42t-47 114zM403 541 q0 -141 57.5 -224.5t162.5 -83.5q104 0 160.5 83.5t56.5 224.5t-56.5 222t-160.5 81t-162 -81t-58 -222zM692 1389q0 72 47.5 113.5t110.5 41.5t110.5 -42t47.5 -113q0 -72 -47.5 -114t-110.5 -42t-110.5 42t-47.5 114z" />
<glyph unicode="&#xf7;" d="M100 483v256h963v-256h-963zM410 197q0 86 53 129t121 43t121 -43t53 -129t-53.5 -129t-120.5 -43q-68 0 -121 43t-53 129zM410 1026q0 86 53 129t121 43t121 -43t53 -129t-53.5 -129t-120.5 -43q-68 0 -121 43t-53 129z" />
<glyph unicode="&#xf8;" horiz-adv-x="1243" d="M92 541q0 253 150 409t381 156q151 0 268 -68l94 121l143 -108l-100 -129q123 -150 123 -381q0 -258 -143 -413q-146 -157 -385 -157q-154 0 -275 70l-92 -121l-143 109l100 129q-121 152 -121 383zM387 541q0 -90 16 -135l328 425q-47 29 -108 29q-111 0 -173.5 -84.5 t-62.5 -234.5zM510 248q49 -31 113 -31q111 0 172 87t61 237q0 70 -16 135z" />
<glyph unicode="&#xf9;" horiz-adv-x="1206" d="M133 477v600h305v-563q0 -147 39 -212.5t146 -65.5q63 0 135 10v831h305v-1040q-210 -62 -459 -62q-376 0 -448 299q-23 93 -23 203zM303 1464l186 172l291 -331l-139 -125z" />
<glyph unicode="&#xfa;" horiz-adv-x="1206" d="M133 477v600h305v-563q0 -147 39 -212.5t146 -65.5q63 0 135 10v831h305v-1040q-210 -62 -459 -62q-376 0 -448 299q-23 93 -23 203zM383 1305l291 331l186 -172l-337 -284z" />
<glyph unicode="&#xfb;" horiz-adv-x="1206" d="M133 477v600h305v-563q0 -147 39 -212.5t146 -65.5q63 0 135 10v831h305v-1040q-210 -62 -459 -62q-376 0 -448 299q-23 93 -23 203zM281 1321l322 281l317 -281l-113 -135l-204 157l-205 -157z" />
<glyph unicode="&#xfc;" horiz-adv-x="1206" d="M133 477v600h305v-563q0 -147 39 -212.5t146 -65.5q63 0 135 10v831h305v-1040q-210 -62 -459 -62q-376 0 -448 299q-23 93 -23 203zM213 1389q0 72 47 113.5t110 41.5t110.5 -42t47.5 -113q0 -72 -47.5 -114t-110.5 -42t-110 42t-47 114zM669 1389q0 72 47.5 113.5 t110.5 41.5t110.5 -42t47.5 -113q0 -72 -47.5 -114t-110.5 -42t-110.5 42t-47.5 114z" />
<glyph unicode="&#xfd;" horiz-adv-x="1120" d="M10 -336l53 244q85 -29 164.5 -29t123.5 44t75 122q-245 483 -406 1032h324q81 -324 229 -710q106 292 211 710h316q-184 -621 -412 -1112q-87 -187 -180 -263q-98 -81 -266 -81q-127 0 -232 43zM403 1305l291 331l186 -172l-337 -284z" />
<glyph unicode="&#xfe;" horiz-adv-x="1236" d="M143 -379v1919l306 49v-508q73 21 175.5 21t203 -40t170.5 -112q147 -151 147 -411q0 -252 -121 -404q-124 -155 -350 -155q-121 0 -225 47v-406h-306zM449 281q69 -43 167 -43q218 -1 218 292q0 141 -62.5 226.5t-166.5 85.5t-156 -19v-542z" />
<glyph unicode="&#xff;" horiz-adv-x="1120" d="M10 -336l53 244q85 -29 164.5 -29t123.5 44t75 122q-245 483 -406 1032h324q81 -324 229 -710q106 292 211 710h316q-184 -621 -412 -1112q-87 -187 -180 -263q-98 -81 -266 -81q-127 0 -232 43zM180 1389q0 72 47 113.5t110 41.5t110.5 -42t47.5 -113q0 -72 -47.5 -114 t-110.5 -42t-110 42t-47 114zM636 1389q0 72 47.5 113.5t110.5 41.5t110.5 -42t47.5 -113q0 -72 -47.5 -114t-110.5 -42t-110.5 42t-47.5 114z" />
<glyph unicode="&#x152;" horiz-adv-x="2041" d="M102 711q0 357 222 545q106 90 254.5 133t293 43t246.5 -13h805v-268h-604v-279h532v-262h-532v-342h651v-268h-852q-94 -12 -242.5 -12t-297 43t-254.5 132q-222 188 -222 548zM430 711q0 -219 116.5 -336t356.5 -117h47q21 0 60 2v899q-41 2 -60 2h-47 q-240 0 -356.5 -115.5t-116.5 -334.5z" />
<glyph unicode="&#x153;" horiz-adv-x="1918" d="M92 541q0 256 146 409q147 156 380.5 156t366.5 -176q133 176 354 176t354.5 -139.5t133.5 -413.5q0 -40 -6 -115h-693q10 -94 88 -149.5t232 -55.5t274 54l41 -248q-86 -41 -265 -61q-57 -7 -114 -7q-273 0 -413 170q-141 -170 -357 -170q-236 0 -380 157 q-142 156 -142 413zM403 541q0 -141 57.5 -224.5t162.5 -83.5q104 0 160.5 83.5t56.5 224.5t-56.5 222t-160.5 81t-162 -81t-58 -222zM1128 647h404q-7 138 -109 189q-37 18 -89 18t-88 -17.5t-60 -46.5q-41 -46 -58 -143z" />
<glyph unicode="&#x178;" horiz-adv-x="1353" d="M10 1419h371q133 -297 303 -583q193 326 307 583h352q-221 -433 -505 -876v-543h-320v539q-289 450 -508 880zM291 1717q0 72 47 113.5t110 41.5t110.5 -42t47.5 -113q0 -72 -47.5 -114t-110.5 -42t-110 42t-47 114zM747 1717q0 72 47.5 113.5t110.5 41.5t110.5 -42 t47.5 -113q0 -72 -47.5 -114t-110.5 -42t-110.5 42t-47.5 114z" />
<glyph unicode="&#x2c6;" horiz-adv-x="815" d="M86 1321l322 281l317 -281l-113 -135l-204 157l-205 -157z" />
<glyph unicode="&#x2dc;" horiz-adv-x="763" d="M8 1325q52 134 156 189q39 20 81 20t73.5 -11.5t62.5 -24.5t60.5 -24.5t64.5 -11.5q69 0 110 88l150 -98q-52 -134 -156 -188q-39 -21 -81 -21t-73.5 11.5t-62.5 24.5q-86 36 -125 36q-70 0 -110 -88z" />
<glyph unicode="&#x2000;" horiz-adv-x="982" />
<glyph unicode="&#x2001;" horiz-adv-x="1964" />
<glyph unicode="&#x2002;" horiz-adv-x="982" />
<glyph unicode="&#x2003;" horiz-adv-x="1964" />
<glyph unicode="&#x2004;" horiz-adv-x="654" />
<glyph unicode="&#x2005;" horiz-adv-x="491" />
<glyph unicode="&#x2006;" horiz-adv-x="327" />
<glyph unicode="&#x2007;" horiz-adv-x="327" />
<glyph unicode="&#x2008;" horiz-adv-x="245" />
<glyph unicode="&#x2009;" horiz-adv-x="392" />
<glyph unicode="&#x200a;" horiz-adv-x="109" />
<glyph unicode="&#x2010;" horiz-adv-x="696" d="M51 473v277h594v-277h-594z" />
<glyph unicode="&#x2011;" horiz-adv-x="696" d="M51 473v277h594v-277h-594z" />
<glyph unicode="&#x2012;" horiz-adv-x="696" d="M51 473v277h594v-277h-594z" />
<glyph unicode="&#x2013;" horiz-adv-x="1024" d="M0 485v254h1024v-254h-1024z" />
<glyph unicode="&#x2014;" horiz-adv-x="2048" d="M0 485v254h2048v-254h-2048z" />
<glyph unicode="&#x2018;" horiz-adv-x="497" d="M82 1118q0 137 49 261t121 210l215 -49q-86 -194 -86 -410v-39q0 -35 6 -77h-297q-8 58 -8 104z" />
<glyph unicode="&#x2019;" horiz-adv-x="497" d="M31 1044q86 194 86 410v38q0 34 -6 79h297q8 -58 8 -105q0 -137 -49.5 -261t-120.5 -210z" />
<glyph unicode="&#x201a;" horiz-adv-x="497" d="M31 -211q86 194 86 410v38q0 34 -6 79h297q8 -58 8 -105q0 -137 -49.5 -261t-120.5 -210z" />
<glyph unicode="&#x201c;" horiz-adv-x="929" d="M82 1118q0 137 49 261t121 210l207 -47q-86 -194 -86 -412v-39q0 -35 6 -77h-289q-8 58 -8 104zM522 1118q0 137 49.5 261t120.5 210l207 -47q-86 -194 -86 -412v-39q0 -35 6 -77h-289q-8 58 -8 104z" />
<glyph unicode="&#x201d;" horiz-adv-x="929" d="M31 1042q86 194 86 412v38q0 34 -6 79h288q9 -65 9 -105q0 -137 -49.5 -261t-120.5 -210zM471 1042q86 194 86 412v38q0 34 -6 79h289q8 -58 8 -105q0 -137 -49 -261t-121 -210z" />
<glyph unicode="&#x201e;" horiz-adv-x="929" d="M31 -213q86 194 86 412v38q0 34 -6 79h288q9 -65 9 -105q0 -137 -49.5 -261t-120.5 -210zM471 -213q86 194 86 412v38q0 34 -6 79h289q8 -58 8 -105q0 -137 -49 -261t-121 -210z" />
<glyph unicode="&#x2022;" horiz-adv-x="745" d="M78 723q0 122 80 204q85 87 215 87t215 -87q80 -82 80 -205q0 -58 -20.5 -110.5t-59.5 -92.5q-85 -87 -215 -87t-215 87q-80 82 -80 204z" />
<glyph unicode="&#x2026;" horiz-adv-x="2048" d="M122 162q0 92 58.5 140t132.5 48t132 -48t58 -140t-58 -140.5t-132 -48.5t-132.5 48.5t-58.5 140.5zM833 162q0 92 58.5 140t132.5 48t132 -48t58 -140t-58 -140.5t-132 -48.5t-132.5 48.5t-58.5 140.5zM1544 162q0 92 58.5 140t132.5 48t132 -48t58 -140t-58 -140.5 t-132 -48.5t-132.5 48.5t-58.5 140.5z" />
<glyph unicode="&#x202f;" horiz-adv-x="392" />
<glyph unicode="&#x2039;" horiz-adv-x="669" d="M41 582l336 491l231 -108l-207 -383l207 -383l-231 -109z" />
<glyph unicode="&#x203a;" horiz-adv-x="669" d="M61 199l207 383l-207 383l232 108l336 -491l-336 -492z" />
<glyph unicode="&#x205f;" horiz-adv-x="491" />
<glyph unicode="&#x20ac;" d="M94 446v203h129q-2 23 -2 35v64q0 18 2 34h-129v203h156q53 229 202.5 346t383.5 117q144 0 288 -53l-63 -238q-119 39 -235 39q-223 0 -283 -211h454l-39 -203h-442q-2 -23 -2 -38v-60q0 -12 2 -35h418l-39 -203h-352q35 -123 104.5 -171t195 -48t255.5 54l59 -236 q-137 -72 -346 -72q-256 0 -391 124t-178 349h-148z" />
<glyph unicode="&#x2122;" horiz-adv-x="1748" d="M61 1208v211h660v-211h-209v-510h-242v510h-209zM801 698q23 419 63 721h217q43 -92 82 -187t80 -188l158 375h219q33 -201 68 -721h-236l-8 383l-121 -307h-162l-121 305l-6 -381h-233z" />
<glyph unicode="&#xe000;" horiz-adv-x="1075" d="M0 0v1075h1075v-1075h-1075z" />
</font>
</defs>
</svg>
