# 3ds Max Wavefront OBJ Exporter v0.97b - (c)2007 guruware
# File Created: 07.10.2011 23:02:27

#
# object spotLight
#

v  1.0000 0.0000 -1.0000
v  0.9239 0.3827 -1.0000
v  0.0000 0.0000 -0.0000
v  0.7071 0.7071 -1.0000
v  0.3827 0.9239 -1.0000
v  0.0000 1.0000 -1.0000
v  -0.3827 0.9239 -1.0000
v  -0.7071 0.7071 -1.0000
v  -0.9239 0.3827 -1.0000
v  -1.0000 0.0000 -1.0000
v  -0.9239 -0.3827 -1.0000
v  -0.7071 -0.7071 -1.0000
v  -0.3827 -0.9239 -1.0000
v  0.0000 -1.0000 -1.0000
v  0.3827 -0.9239 -1.0000
v  0.7071 -0.7071 -1.0000
v  0.9239 -0.3827 -1.0000
# 17 vertices

vn 0.7002 0.1392 0.7002
vn 0.5936 0.3967 0.7002
vn 0.3967 0.5936 0.7002
vn 0.1392 0.7002 0.7002
vn -0.1392 0.7002 0.7002
vn -0.3967 0.5936 0.7002
vn -0.5936 0.3967 0.7002
vn -0.7002 0.1392 0.7002
vn -0.7002 -0.1392 0.7002
vn -0.5936 -0.3967 0.7002
vn -0.3967 -0.5936 0.7002
vn -0.1392 -0.7002 0.7002
vn 0.1392 -0.7002 0.7002
vn 0.3967 -0.5936 0.7002
vn 0.5936 -0.3967 0.7002
vn 0.7002 -0.1392 0.7002
vn 0.0000 0.0000 -1.0000
# 17 vertex normals

vt 0.7500 0.0000 1.0000
vt 0.8125 0.0000 1.0000
vt 0.5000 1.0000 0.0000
vt 0.3087 0.9619 -0.2500
vt 0.1464 0.8536 -0.2500
vt 0.5000 0.5000 0.2500
vt 0.0381 0.6913 -0.2500
vt 0.9375 0.0000 1.0000
vt 1.0000 0.0000 1.0000
vt 0.0000 0.0000 1.0000
vt 0.0625 0.0000 1.0000
vt 0.0381 0.3087 -0.2500
vt 0.1464 0.1464 -0.2500
vt 0.3087 0.0381 -0.2500
vt 0.1875 0.0000 1.0000
vt 0.2500 0.0000 1.0000
vt 0.3125 0.0000 1.0000
vt 0.6913 0.0381 -0.2500
vt 0.8536 0.1464 -0.2500
vt 0.9619 0.3087 -0.2500
vt 0.4375 0.0000 1.0000
vt 0.5000 0.0000 1.0000
vt 0.5625 0.0000 1.0000
vt 0.9619 0.6913 -0.2500
vt 0.8536 0.8536 -0.2500
vt 0.6913 0.9619 -0.2500
vt 0.6875 0.0000 1.0000
vt 0.5000 1.0000 -0.2500
vt 1.0000 0.5000 -0.2500
vt 0.0000 0.5000 -0.2500
vt 0.5000 0.0000 -0.2500
# 31 texture coords

g spotLight
f 1/1/1 2/2/1 3/3/1 
f 2/4/2 4/5/2 3/6/2 
f 4/5/3 5/7/3 3/6/3 
f 5/8/4 6/9/4 3/3/4 
f 6/10/5 7/11/5 3/3/5 
f 7/12/6 8/13/6 3/6/6 
f 8/13/7 9/14/7 3/6/7 
f 9/15/8 10/16/8 3/3/8 
f 10/16/9 11/17/9 3/3/9 
f 11/18/10 12/19/10 3/6/10 
f 12/19/11 13/20/11 3/6/11 
f 13/21/12 14/22/12 3/3/12 
f 14/22/13 15/23/13 3/3/13 
f 15/24/14 16/25/14 3/6/14 
f 16/25/15 17/26/15 3/6/15 
f 17/27/16 1/1/16 3/3/16 
f 17/26/17 16/25/17 5/7/17 
f 5/7/17 4/5/17 17/26/17 
f 2/4/17 1/28/17 17/26/17 
f 17/26/17 4/5/17 2/4/17 
f 13/20/17 8/13/17 7/12/17 
f 7/12/17 14/29/17 13/20/17 
f 5/7/17 16/25/17 15/24/17 
f 15/24/17 6/30/17 5/7/17 
f 6/30/17 15/24/17 14/29/17 
f 14/29/17 7/12/17 6/30/17 
f 11/18/17 10/31/17 9/14/17 
f 9/14/17 12/19/17 11/18/17 
f 8/13/17 13/20/17 12/19/17 
f 12/19/17 9/14/17 8/13/17 
# 30 faces

