# 3ds Max Wavefront OBJ Exporter v0.97b - (c)2007 guruware
# File Created: 16.09.2011 00:00:18

#
# object Box001
#

v  -1.3347 0.3221 1.6301
v  -1.5963 0.5644 1.6348
v  -1.5963 0.5644 -0.1771
v  -1.3347 0.3221 -0.1724
v  2.8236 0.0355 0.7289
v  2.7692 0.0354 -0.0799
v  2.7692 0.5644 -0.0844
v  2.8236 0.7135 0.7289
v  -1.3216 0.9110 -0.1130
v  1.8044 0.8977 -0.1130
v  1.9827 0.5644 -0.2040
v  -1.3216 0.5644 -0.2040
v  2.7692 0.7118 -0.0491
v  1.9827 -0.0022 -0.1993
v  2.7320 -0.0022 -0.0853
v  2.7859 -0.0022 0.7289
v  -0.7497 0.0188 -0.1993
v  2.3801 0.8205 -0.1130
v  -1.5963 0.8725 -0.1130
v  2.3801 0.8205 1.5708
v  1.8044 0.8977 1.5708
v  -1.5963 0.8725 1.5708
v  1.9827 -0.0022 1.6570
v  -0.7497 0.0188 1.6570
v  -1.3216 0.9110 1.5708
v  2.7692 0.5644 1.5421
v  2.7692 0.0354 1.5377
v  -1.3216 0.5644 1.6618
v  1.9827 0.5644 1.6618
v  2.7692 0.7118 1.5069
v  2.7320 -0.0022 1.5430
# 31 vertices

vn -0.6798 -0.7334 0.0000
vn -0.9046 -0.4262 0.0000
vn 1.0000 -0.0002 -0.0000
vn 0.9977 -0.0006 -0.0671
vn 0.9977 0.0065 -0.0681
vn 1.0000 0.0019 -0.0000
vn -0.0282 0.2413 -0.9700
vn 0.0129 0.2698 -0.9628
vn 0.0628 0.1197 -0.9908
vn -0.0629 0.0797 -0.9948
vn 0.9974 0.0167 -0.0698
vn -0.0059 -1.0000 0.0051
vn 0.0000 -1.0000 -0.0000
vn -0.0033 -1.0000 -0.0002
vn -0.1053 -0.1232 -0.9868
vn -0.0777 0.1196 -0.9898
vn -0.0117 -0.0210 -0.9997
vn 0.1494 0.1130 -0.9823
vn 0.1504 -0.0083 -0.9886
vn 0.0756 -0.0084 -0.9971
vn 0.1553 0.1901 -0.9694
vn 0.1471 0.1206 -0.9817
vn -0.0285 0.2036 -0.9786
vn 0.1931 0.9812 0.0065
vn 0.1931 0.9812 -0.0065
vn 0.0687 0.9976 0.0000
vn 0.7137 -0.6988 -0.0480
vn 0.7063 -0.7063 -0.0468
vn -1.0000 0.0000 0.0000
vn -1.0000 -0.0000 0.0000
vn -0.2372 -0.9715 0.0001
vn -0.0043 -1.0000 -0.0024
vn -0.2375 -0.9714 -0.0000
vn -0.0675 0.9977 -0.0000
vn -0.0675 0.9977 0.0000
vn 0.9977 0.0065 0.0681
vn 0.9977 -0.0006 0.0671
vn -0.0282 0.2413 0.9700
vn -0.0629 0.0797 0.9948
vn 0.0628 0.1197 0.9908
vn 0.0129 0.2698 0.9628
vn 0.9974 0.0167 0.0698
vn -0.4602 -0.8878 -0.0000
vn -0.4602 -0.8878 0.0000
vn 0.2724 0.9620 0.0212
vn 0.2455 0.9694 0.0000
vn 0.2724 0.9620 -0.0212
vn -0.1389 0.9903 0.0000
vn -0.1389 0.9903 -0.0000
vn -0.1053 -0.1232 0.9868
vn -0.0117 -0.0210 0.9997
vn -0.0777 0.1196 0.9898
vn 0.1504 -0.0083 0.9886
vn 0.1494 0.1130 0.9823
vn 0.0756 -0.0084 0.9971
vn 0.1553 0.1901 0.9694
vn 0.1471 0.1206 0.9817
vn -0.0285 0.2036 0.9786
vn 0.7063 -0.7063 0.0468
vn 0.7137 -0.6988 0.0480
# 60 vertex normals

vt 0.0000 0.0000 0.0000
vt 0.0000 0.5000 0.0000
vt 0.5000 0.0449 0.0000
vt 1.0000 0.0332 0.0000
vt 1.0000 0.5000 0.0000
vt 0.5000 1.0000 0.0000
vt 0.9355 1.0000 0.0000
vt 0.2910 1.0000 0.0000
vt 0.2910 0.5000 0.0000
vt 0.9355 0.5000 0.0000
vt 1.0000 1.0000 0.0000
vt 1.0000 0.7090 0.0000
vt 1.0000 0.9969 0.0000
vt 0.5000 0.9915 0.0000
vt 1.0000 0.0000 0.0000
vt 0.9355 0.0000 0.0000
vt 0.0000 0.0332 0.0000
vt 0.0031 0.0000 0.0000
vt 0.2910 0.0000 0.0000
vt 0.0000 1.0000 0.0000
vt 0.0645 1.0000 0.0000
vt 0.0000 0.9355 0.0000
vt 0.0000 0.7090 0.0000
vt 1.0022 -0.0042 0.0000
vt 0.4946 0.0264 0.0000
vt 1.0000 0.0645 0.0000
vt 0.0000 0.0645 0.0000
# 27 texture coords

g Box001
f 1/1/1 2/2/2 3/2/2 
f 3/2/2 4/1/1 1/1/1 
f 5/3/3 6/4/4 7/5/5 
f 7/5/5 8/6/6 5/3/3 
f 9/7/7 10/8/8 11/9/9 
f 11/9/9 12/10/10 9/7/7 
f 7/5/5 13/11/11 8/6/6 
f 14/12/12 15/13/13 16/14/14 
f 4/15/15 3/5/16 12/10/10 
f 12/10/10 17/16/17 4/15/15 
f 7/2/18 6/17/19 15/18/19 
f 7/2/18 15/18/19 14/19/20 
f 11/9/9 7/2/18 14/19/20 
f 13/20/21 7/2/18 11/9/9 
f 11/9/9 18/21/22 13/20/21 
f 3/5/16 19/11/23 9/7/7 
f 9/7/7 12/10/10 3/5/16 
f 20/22/24 18/22/25 10/23/26 
f 10/23/26 21/23/26 20/22/24 
f 17/16/17 12/10/10 11/9/9 
f 11/9/9 14/19/20 17/16/17 
f 10/8/8 18/21/22 11/9/9 
f 15/24/27 6/4/27 5/3/27 
f 5/3/28 16/25/28 15/24/28 
f 3/2/2 2/2/2 22/20/29 
f 22/20/29 19/20/30 3/2/2 
f 17/26/31 14/12/12 16/14/14 
f 17/26/31 16/14/14 23/12/32 
f 24/26/33 17/26/31 23/12/32 
f 25/27/34 21/23/26 10/23/26 
f 10/23/26 9/27/35 25/27/34 
f 5/3/3 8/6/6 26/5/36 
f 26/5/36 27/4/37 5/3/3 
f 25/7/38 28/10/39 29/9/40 
f 29/9/40 21/8/41 25/7/38 
f 26/5/36 8/6/6 30/11/42 
f 23/12/32 16/14/14 31/13/13 
f 1/15/43 4/15/44 17/26/31 
f 17/26/31 24/26/33 1/15/43 
f 20/22/24 30/20/45 8/6/46 
f 8/6/46 13/20/47 18/22/25 
f 20/22/24 8/6/46 18/22/25 
f 9/27/35 19/1/48 22/1/49 
f 22/1/49 25/27/34 9/27/35 
f 1/15/50 24/16/51 28/10/39 
f 28/10/39 2/5/52 1/15/50 
f 31/18/53 27/17/53 26/2/54 
f 23/19/55 31/18/53 26/2/54 
f 29/9/40 23/19/55 26/2/54 
f 30/20/56 20/21/57 29/9/40 
f 29/9/40 26/2/54 30/20/56 
f 2/5/52 28/10/39 25/7/38 
f 25/7/38 22/11/58 2/5/52 
f 24/16/51 23/19/55 29/9/40 
f 29/9/40 28/10/39 24/16/51 
f 21/8/41 29/9/40 20/21/57 
f 31/24/59 16/25/59 5/3/59 
f 5/3/60 27/4/60 31/24/60 
# 58 faces

#
# object Box002
#

v  1.0653 0.8871 -0.0714
v  1.2006 0.8905 0.1693
v  -1.4804 0.8786 0.7289
v  0.5967 0.8921 -0.0596
v  -0.0140 0.8966 -0.0653
v  -0.4462 0.8913 -0.0703
v  -1.4804 0.8786 0.0814
v  -0.0003 1.3062 0.3743
v  0.6331 1.3013 0.3743
v  0.6044 1.2793 0.0964
v  -0.0003 1.2725 0.0819
v  -0.4322 1.2269 0.3743
v  -0.4322 1.2047 0.1048
v  0.9107 1.1079 0.2796
v  0.9456 1.1079 0.7289
v  1.2643 0.8940 0.7289
v  -0.4322 1.2269 0.7289
v  -0.0003 1.3150 0.7289
v  0.6331 1.3088 0.7289
v  1.2006 0.8905 1.2884
v  1.0653 0.8871 1.5291
v  0.5967 0.8921 1.5173
v  -0.0140 0.8966 1.5230
v  -0.4462 0.8913 1.5280
v  -1.4804 0.8786 1.3763
v  -0.0003 1.3062 1.0835
v  -0.0003 1.2725 1.3758
v  0.6044 1.2793 1.3613
v  0.6331 1.3013 1.0835
v  -0.4322 1.2047 1.3529
v  -0.4322 1.2269 1.0835
v  0.9107 1.1079 1.1781
# 32 vertices

vn 0.0041 -1.0000 0.0024
vn 0.0061 -1.0000 0.0077
vn 0.0085 -1.0000 0.0000
vn -0.0113 -0.9988 -0.0469
vn -0.0039 -0.9995 -0.0300
vn 0.0123 -0.9999 0.0000
vn 0.0019 0.9979 -0.0649
vn 0.0084 0.9987 -0.0501
vn 0.0034 0.9960 -0.0893
vn -0.0083 0.9934 -0.1144
vn -0.3062 0.9520 -0.0000
vn -0.2517 0.9667 -0.0466
vn -0.2428 0.9678 -0.0666
vn -0.2971 0.9549 -0.0000
vn -0.0652 0.4889 -0.8699
vn -0.1326 0.4879 -0.8628
vn -0.0841 0.4561 -0.8860
vn 0.5571 0.8127 -0.1710
vn 0.5474 0.8340 -0.0699
vn 0.5673 0.8127 -0.1326
vn 0.5395 0.8226 -0.1796
vn 0.5604 0.8282 0.0000
vn 0.5573 0.8303 0.0000
vn -0.1858 0.9806 -0.0629
vn -0.2527 0.9676 -0.0000
vn -0.1998 0.9798 -0.0000
vn 0.0056 -1.0000 -0.0000
vn 0.0084 1.0000 -0.0000
vn 0.0098 1.0000 0.0000
vn 0.5408 0.8411 0.0000
vn 0.5319 0.8025 -0.2703
vn -0.1722 0.9798 -0.1015
vn -0.0421 0.3676 -0.9290
vn -0.0243 0.3938 -0.9189
vn 0.0048 0.3736 -0.9276
vn -0.0018 0.3720 -0.9282
vn -0.0194 0.3740 -0.9272
vn 0.0061 -1.0000 -0.0077
vn 0.0041 -1.0000 -0.0024
vn -0.0113 -0.9988 0.0469
vn -0.0039 -0.9995 0.0300
vn 0.0123 -0.9999 -0.0000
vn 0.0019 0.9979 0.0649
vn -0.0083 0.9934 0.1144
vn 0.0034 0.9960 0.0893
vn 0.0084 0.9987 0.0501
vn -0.2428 0.9678 0.0666
vn -0.2517 0.9667 0.0466
vn -0.0652 0.4889 0.8699
vn -0.0841 0.4561 0.8860
vn -0.1326 0.4879 0.8628
vn 0.5571 0.8127 0.1710
vn 0.5673 0.8127 0.1326
vn 0.5474 0.8340 0.0699
vn 0.5395 0.8226 0.1796
vn -0.1858 0.9806 0.0629
vn 0.5319 0.8025 0.2703
vn -0.1722 0.9798 0.1015
vn -0.0243 0.3938 0.9189
vn -0.0421 0.3676 0.9290
vn -0.0018 0.3720 0.9282
vn 0.0048 0.3736 0.9276
vn -0.0194 0.3740 0.9272
# 63 vertex normals

vt 1.0000 1.0000 0.0000
vt 0.7500 1.0000 0.0000
vt 0.5000 0.0000 0.0000
vt 1.0000 0.8159 0.0000
vt 1.0000 0.5760 0.0000
vt 1.0000 0.4063 0.0000
vt 1.0000 0.0000 0.0000
vt 0.2500 0.0000 0.0000
vt 0.2500 1.0000 0.0000
vt 0.0000 1.0000 0.0000
vt 0.0000 0.0000 0.0000
vt 0.2500 0.5000 0.0000
vt 0.0000 0.5000 0.0000
vt 0.5937 0.0000 0.0000
vt 1.0000 0.5000 0.0000
vt 0.7500 0.5000 0.0000
vt 0.7500 0.0000 0.0000
vt 0.5000 0.5000 0.0000
vt 0.5000 1.0000 0.0000
vt 0.4240 0.0000 0.0000
vt 0.1841 0.0000 0.0000
# 21 texture coords

g Box002
f 32/28/61 33/29/62 34/30/63 
f 35/31/64 32/28/61 34/30/63 
f 36/32/65 35/31/64 34/30/63 
f 37/33/66 36/32/65 34/30/63 
f 38/34/66 37/33/66 34/30/63 
f 39/35/67 40/36/68 41/37/69 
f 41/37/69 42/38/70 39/35/67 
f 34/30/71 43/39/72 44/40/73 
f 44/40/73 38/38/74 34/30/71 
f 37/41/75 38/34/76 44/42/77 
f 41/42/78 40/29/79 45/43/80 
f 33/44/81 45/43/80 46/45/82 
f 46/45/82 47/30/83 33/44/81 
f 39/36/84 43/39/72 48/45/85 
f 48/45/85 49/46/86 39/36/84 
f 33/29/62 47/46/87 34/30/63 
f 49/30/88 50/46/89 40/36/68 
f 40/36/68 39/35/67 49/30/88 
f 34/30/71 48/45/85 43/39/72 
f 40/29/79 50/46/90 46/45/82 
f 46/45/82 45/43/80 40/29/79 
f 32/34/91 41/42/78 45/43/80 
f 45/43/80 33/44/81 32/34/91 
f 42/37/92 44/40/73 43/39/72 
f 43/39/72 39/36/84 42/37/92 
f 44/42/77 42/28/93 36/47/94 
f 36/47/94 37/41/75 44/42/77 
f 42/28/93 41/40/95 35/48/96 
f 35/48/96 36/47/94 42/28/93 
f 41/40/95 32/38/97 35/48/96 
f 34/30/63 51/29/98 52/28/99 
f 34/30/63 52/28/99 53/31/100 
f 34/30/63 53/31/100 54/32/101 
f 34/30/63 54/32/101 55/33/102 
f 56/34/66 34/30/63 55/33/102 
f 57/35/103 58/38/104 59/37/105 
f 59/37/105 60/36/106 57/35/103 
f 34/30/71 56/38/74 61/40/107 
f 61/40/107 62/39/108 34/30/71 
f 55/41/109 61/42/110 56/34/111 
f 59/42/112 63/43/113 60/29/114 
f 51/44/115 47/30/83 46/45/82 
f 46/45/82 63/43/113 51/44/115 
f 57/36/116 49/46/86 48/45/85 
f 48/45/85 62/39/108 57/36/116 
f 51/29/98 34/30/63 47/46/87 
f 49/30/88 57/35/103 60/36/106 
f 60/36/106 50/46/89 49/30/88 
f 34/30/71 62/39/108 48/45/85 
f 60/29/114 63/43/113 46/45/82 
f 46/45/82 50/46/90 60/29/114 
f 52/34/117 51/44/115 63/43/113 
f 63/43/113 59/42/112 52/34/117 
f 58/37/118 57/36/116 62/39/108 
f 62/39/108 61/40/107 58/37/118 
f 61/42/110 55/41/109 54/47/119 
f 54/47/119 58/28/120 61/42/110 
f 58/28/120 54/47/119 53/48/121 
f 53/48/121 59/40/122 58/28/120 
f 59/40/122 53/48/121 52/38/123 
# 60 faces

#
# object Cylinder001
#

v  -1.3595 0.9474 0.2916
v  -1.2385 0.9855 0.2916
v  -1.2385 0.9855 0.7378
v  -1.3595 0.9474 0.7378
v  -1.1800 1.0980 0.2916
v  -1.1800 1.0980 0.7378
v  -1.2181 1.2189 0.2916
v  -1.2181 1.2189 0.7378
v  -1.3306 1.2775 0.2916
v  -1.3306 1.2775 0.7378
v  -1.4515 1.2394 0.2916
v  -1.4515 1.2394 0.7378
v  -1.5101 1.1269 0.2916
v  -1.5101 1.1269 0.7378
v  -1.4720 1.0059 0.2916
v  -1.4720 1.0059 0.7378
v  -1.2814 1.0366 0.7878
v  -1.3537 1.0139 0.7878
v  -1.2465 1.1038 0.7878
v  -1.2692 1.1761 0.7878
v  -1.3364 1.2110 0.7878
v  -1.4088 1.1880 0.7878
v  -1.4435 1.1214 0.7878
v  -1.4208 1.0488 0.7878
v  -1.3550 0.9982 0.2437
v  -1.2714 1.0246 0.2437
v  -1.4329 1.0388 0.2437
v  -1.4592 1.1224 0.2437
v  -1.4187 1.2003 0.2437
v  -1.3351 1.2266 0.2437
v  -1.2572 1.1861 0.2437
v  -1.2308 1.1025 0.2437
v  -1.3474 1.0860 0.2277
v  -1.3280 1.0921 0.2277
v  -1.3653 1.0954 0.2277
v  -1.3715 1.1148 0.2277
v  -1.3621 1.1327 0.2277
v  -1.3427 1.1389 0.2277
v  -1.3247 1.1295 0.2277
v  -1.3186 1.1101 0.2277
# 40 vertices

vn -0.0872 -0.9962 0.0000
vn 0.6428 -0.7660 0.0000
vn 0.9962 -0.0872 0.0000
vn 0.7660 0.6428 -0.0000
vn 0.7660 0.6428 0.0000
vn 0.0872 0.9962 -0.0000
vn -0.6428 0.7660 -0.0000
vn -0.9962 0.0872 -0.0000
vn -0.7660 -0.6428 0.0000
vn -0.7660 -0.6428 -0.0000
vn 0.1894 -0.6007 0.7767
vn 0.5587 -0.2908 0.7767
vn 0.6007 0.1894 0.7767
vn 0.2908 0.5587 0.7767
vn -0.1890 0.5993 0.7779
vn -0.1914 0.6006 0.7763
vn -0.5587 0.2908 0.7767
vn -0.6007 -0.1894 0.7767
vn -0.5995 -0.1870 0.7783
vn -0.2908 -0.5587 0.7767
vn 0.2144 -0.6800 -0.7012
vn -0.3292 -0.6324 -0.7012
vn -0.6800 -0.2144 -0.7012
vn -0.6324 0.3292 -0.7012
vn -0.2144 0.6800 -0.7012
vn 0.3292 0.6324 -0.7012
vn 0.6800 0.2144 -0.7012
vn 0.6324 -0.3292 -0.7012
vn 0.0580 -0.1841 -0.9812
vn -0.0891 -0.1712 -0.9812
vn -0.1841 -0.0580 -0.9812
vn -0.1712 0.0891 -0.9812
vn -0.0580 0.1841 -0.9812
vn 0.0891 0.1712 -0.9812
vn 0.1841 0.0580 -0.9812
vn 0.1712 -0.0891 -0.9812
vn -0.0000 0.0000 -1.0000
vn 0.0000 0.0000 -1.0000
vn -0.0000 0.0000 1.0000
# 39 vertex normals

vt 0.7500 0.0000 1.0000
vt 0.8750 0.0000 1.0000
vt 0.8750 1.0000 1.0000
vt 0.7500 1.0000 1.0000
vt 1.0000 0.0000 1.0000
vt 1.0000 1.0000 1.0000
vt 0.0000 0.0000 1.0000
vt 0.1250 0.0000 1.0000
vt 0.1250 1.0000 1.0000
vt 0.0000 1.0000 1.0000
vt 0.2500 0.0000 1.0000
vt 0.2500 1.0000 1.0000
vt 0.3750 0.0000 1.0000
vt 0.3750 1.0000 1.0000
vt 0.5000 0.0000 1.0000
vt 0.5000 1.0000 1.0000
vt 0.6250 0.0000 1.0000
vt 0.6250 1.0000 1.0000
vt 0.1464 0.8536 0.2500
vt 0.5000 1.0000 0.2500
vt 0.0000 0.5000 0.2500
vt 0.1464 0.1464 0.2500
vt 0.5000 0.0000 0.2500
vt 0.8536 0.1464 0.2500
vt 1.0000 0.5000 0.2500
vt 0.8536 0.8536 0.2500
vt 0.5000 1.0000 -0.2500
vt 0.1464 0.8536 -0.2500
vt 0.8536 0.8536 -0.2500
vt 1.0000 0.5000 -0.2500
vt 0.8536 0.1464 -0.2500
vt 0.5000 0.0000 -0.2500
vt 0.1464 0.1464 -0.2500
vt 0.0000 0.5000 -0.2500
# 34 texture coords

g Cylinder001
f 64/49/124 65/50/125 66/51/125 
f 66/51/125 67/52/124 64/49/124 
f 65/50/125 68/53/126 69/54/126 
f 69/54/126 66/51/125 65/50/125 
f 68/55/126 70/56/127 71/57/128 
f 71/57/128 69/58/126 68/55/126 
f 70/56/127 72/59/129 73/60/129 
f 73/60/129 71/57/128 70/56/127 
f 72/59/129 74/61/130 75/62/130 
f 75/62/130 73/60/129 72/59/129 
f 74/61/130 76/63/131 77/64/131 
f 77/64/131 75/62/130 74/61/130 
f 76/63/131 78/65/132 79/66/133 
f 79/66/133 77/64/131 76/63/131 
f 78/65/132 64/49/124 67/52/124 
f 67/52/124 79/66/133 78/65/132 
f 67/52/134 66/51/134 80/67/134 
f 80/67/134 81/68/134 67/52/134 
f 66/51/135 69/54/135 82/69/135 
f 82/69/135 80/67/135 66/51/135 
f 69/58/136 71/57/136 83/70/136 
f 83/70/136 82/69/136 69/58/136 
f 71/57/137 73/60/137 84/71/137 
f 84/71/137 83/70/137 71/57/137 
f 73/60/138 75/62/138 85/72/138 
f 85/72/139 84/71/139 73/60/139 
f 75/62/140 77/64/140 86/73/140 
f 86/73/140 85/72/140 75/62/140 
f 77/64/141 79/66/141 87/74/141 
f 87/74/142 86/73/142 77/64/142 
f 79/66/143 67/52/143 81/68/143 
f 81/68/143 87/74/143 79/66/143 
f 65/50/144 64/49/144 88/75/144 
f 88/75/144 89/76/144 65/50/144 
f 64/49/145 78/65/145 90/77/145 
f 90/77/145 88/75/145 64/49/145 
f 78/65/146 76/63/146 91/78/146 
f 91/78/146 90/77/146 78/65/146 
f 76/63/147 74/61/147 92/79/147 
f 92/79/147 91/78/147 76/63/147 
f 74/61/148 72/59/148 93/80/148 
f 93/80/148 92/79/148 74/61/148 
f 72/59/149 70/56/149 94/81/149 
f 94/81/149 93/80/149 72/59/149 
f 70/56/150 68/55/150 95/82/150 
f 95/82/150 94/81/150 70/56/150 
f 68/53/151 65/50/151 89/76/151 
f 89/76/151 95/82/151 68/53/151 
f 89/76/152 88/75/152 96/75/152 
f 96/75/152 97/76/152 89/76/152 
f 88/75/153 90/77/153 98/77/153 
f 98/77/153 96/75/153 88/75/153 
f 90/77/154 91/78/154 99/78/154 
f 99/78/154 98/77/154 90/77/154 
f 91/78/155 92/79/155 100/79/155 
f 100/79/155 99/78/155 91/78/155 
f 92/79/156 93/80/156 101/80/156 
f 101/80/156 100/79/156 92/79/156 
f 93/80/157 94/81/157 102/81/157 
f 102/81/157 101/80/157 93/80/157 
f 94/81/158 95/82/158 103/82/158 
f 103/82/158 102/81/158 94/81/158 
f 95/82/159 89/76/159 97/76/159 
f 97/76/159 103/82/159 95/82/159 
f 98/77/160 99/78/160 100/79/160 
f 100/79/161 101/80/161 102/81/161 
f 102/81/161 103/82/161 97/76/161 
f 100/79/161 102/81/161 97/76/161 
f 98/77/160 100/79/160 97/76/160 
f 96/75/161 98/77/161 97/76/161 
f 82/69/162 83/70/162 84/71/162 
f 84/71/162 85/72/162 86/73/162 
f 86/73/162 87/74/162 81/68/162 
f 84/71/162 86/73/162 81/68/162 
f 82/69/162 84/71/162 81/68/162 
f 80/67/162 82/69/162 81/68/162 
# 76 faces

